<svg xmlns="http://www.w3.org/2000/svg" xmlns:xlink="http://www.w3.org/1999/xlink" width="439.153" height="301.354" viewBox="0 0 439.153 301.354">
  <defs>
    <clipPath id="clip-path">
      <path id="Trazado_661539" data-name="Trazado 661539" d="M654.112,559.018H277.027c-1.2-35.628-.141-15.155.63-51.256,2.022-17.016-53.983-40.4-37.16-115.8s98.752-90.634,100.97-92.542c1.315-1.159,2.058-1.412,3.451-2.5a155.251,155.251,0,0,1,17.233-12.141c.451-.3.922-.582,1.394-.846q4.357-2.612,8.891-4.994,5.476-2.859,11.207-5.356c5.378-2.355,10.933-4.463,16.585-6.319a187.612,187.612,0,0,1,20.138-5.376c41.925-8.739,87.343-3.631,125.95,12.674,3.023,1.277,5.986,2.621,8.931,4.045a175.233,175.233,0,0,1,20.9,11.793c3.219,2.125,6.359,4.331,9.343,6.669.059.033.1.081.157.114a145.684,145.684,0,0,1,24.829,24.384c.53.629,1.021,1.275,1.531,1.924.687.877,1.354,1.756,1.982,2.637,7.164,9.537,19.024,16.073,23.872,26.755,2.218,4.843,4.1,15.979,5.866,20.988,3.082,8.593,9.858,35.639,11.821,44.512.452,1.941,6.577-3.707,6.95-1.765,1.825,9.189,17.01,36.2,13.455,48.985s-23.037,11.561-22.747,16.39c1.707,28.465-.506,21.566,0,50.949C653.366,541.683,653.621,550.408,654.112,559.018Z" transform="translate(-30.112 1641.339)" fill="none" stroke="#707070" stroke-width="1"/>
    </clipPath>
  </defs>
  <g id="Grupo_971155" data-name="Grupo 971155" transform="translate(5151.771 9800.998)">
    <path id="Trazado_661449" data-name="Trazado 661449" d="M654.112,559.018H277.027A702.045,702.045,0,0,1,281.148,452.5q3.032-25.524,8.263-50.935c4.495-21.678,10.187-43.539,20.982-63.478.9-1.675,1.845-3.35,2.826-4.992,1.668-2.8,3.454-5.571,5.358-8.277a132.823,132.823,0,0,1,13.72-16.487c.726-.728,1.433-1.425,2.139-2.121,2.061-2.009,4.181-3.966,6.4-5.873,1.315-1.159,2.689-2.322,4.083-3.415a155.251,155.251,0,0,1,17.233-12.141c.451-.3.922-.582,1.394-.846q4.357-2.612,8.891-4.994,5.476-2.859,11.207-5.356c5.378-2.355,10.933-4.463,16.585-6.319a187.612,187.612,0,0,1,20.138-5.376c41.925-8.739,87.343-3.631,125.95,12.674,3.023,1.277,5.986,2.621,8.931,4.045a175.233,175.233,0,0,1,20.9,11.793c3.219,2.125,6.359,4.331,9.343,6.669.059.033.1.081.157.114a145.684,145.684,0,0,1,24.829,24.384c.53.629,1.021,1.275,1.531,1.924.687.877,1.354,1.756,1.982,2.637a162.336,162.336,0,0,1,17.94,30.484q3.327,7.265,5.986,14.8a216.048,216.048,0,0,1,7.557,26.256c.452,1.941.844,3.881,1.217,5.823a273.189,273.189,0,0,1,3.984,27.6c3.042,32.727,1.943,67.691,2.532,101.857C653.366,541.683,653.621,550.408,654.112,559.018Z" transform="translate(-5389.112 -10058.661)" fill="#f2eed6"/>
    <g id="Enmascarar_grupo_140" data-name="Enmascarar grupo 140" transform="translate(-5359 -11700)" clip-path="url(#clip-path)">
      <g id="Grupo_971154" data-name="Grupo 971154" transform="translate(211.125 1921.902)">
        <g id="Sign" transform="translate(0 26.891)">
          <g id="Grupo_970910" data-name="Grupo 970910" transform="translate(0 0)">
            <g id="Grupo_970907" data-name="Grupo 970907" transform="translate(94.247 186.213)">
              <g id="Grupo_970906" data-name="Grupo 970906" transform="translate(0 0)">
                <rect id="Rectángulo_340640" data-name="Rectángulo 340640" width="17.157" height="457.551" fill="#afafaf"/>
              </g>
            </g>
            <g id="Grupo_970909" data-name="Grupo 970909" transform="translate(0 0)">
              <circle id="Elipse_5890" data-name="Elipse 5890" cx="108.315" cy="108.315" r="108.315" fill="#ffd817"/>
              <g id="Grupo_970908" data-name="Grupo 970908" transform="translate(56.154 97.324)">
                <rect id="Rectángulo_340641" data-name="Rectángulo 340641" width="103.886" height="21.674"/>
              </g>
              <g id="Elipse_5891" data-name="Elipse 5891" transform="translate(11.952 11.952)" fill="none" stroke="#000" stroke-width="6">
                <circle cx="96.363" cy="96.363" r="96.363" stroke="none"/>
                <circle cx="96.363" cy="96.363" r="93.363" fill="none"/>
              </g>
            </g>
          </g>
        </g>
        <g id="Grupo_971153" data-name="Grupo 971153" transform="translate(188.244 0)">
          <g id="Grupo_970916" data-name="Grupo 970916" transform="translate(141.552 613.452)">
            <g id="Grupo_970913" data-name="Grupo 970913" transform="translate(0)">
              <g id="Grupo_970912" data-name="Grupo 970912">
                <g id="Grupo_970911" data-name="Grupo 970911">
                  <path id="Trazado_661450" data-name="Trazado 661450" d="M288.849,433.009l11.018,43.724,18.687,32.07a4.62,4.62,0,0,1-1.942,6.466h0a4.591,4.591,0,0,1-4.228-.068l-42.246-26.243L257.9,445.273Z" transform="translate(-257.897 -433.009)" fill="#455a64"/>
                </g>
              </g>
            </g>
            <g id="Grupo_970915" data-name="Grupo 970915" transform="translate(10.424 49.47)">
              <g id="Grupo_970914" data-name="Grupo 970914">
                <path id="Trazado_661451" data-name="Trazado 661451" d="M308.416,496.371l-42.246-26.243-1.816-6.479,48.622,32.609A4.721,4.721,0,0,1,308.416,496.371Z" transform="translate(-264.353 -463.649)" fill="#263238"/>
              </g>
            </g>
          </g>
          <g id="Grupo_970926" data-name="Grupo 970926" transform="translate(24.488 622.08)">
            <g id="Grupo_970925" data-name="Grupo 970925">
              <g id="Grupo_970920" data-name="Grupo 970920" transform="translate(0.337)">
                <g id="Grupo_970919" data-name="Grupo 970919">
                  <g id="Grupo_970918" data-name="Grupo 970918">
                    <g id="Grupo_970917" data-name="Grupo 970917">
                      <path id="Trazado_661452" data-name="Trazado 661452" d="M217.552,439.446l2.264,34.178S185.8,484.915,185.6,491.271l66.466.481-1.342-53.4Z" transform="translate(-185.6 -438.353)" fill="#455a64"/>
                    </g>
                  </g>
                </g>
              </g>
              <g id="Grupo_970924" data-name="Grupo 970924" transform="translate(0 48.017)">
                <g id="Grupo_970923" data-name="Grupo 970923">
                  <g id="Grupo_970922" data-name="Grupo 970922">
                    <g id="Grupo_970921" data-name="Grupo 970921">
                      <path id="Trazado_661453" data-name="Trazado 661453" d="M252.195,473.476l-.136-5.383-64.194,1.773a4.59,4.59,0,0,0-2.474,3.61Z" transform="translate(-185.391 -468.093)" fill="#263238"/>
                    </g>
                  </g>
                </g>
              </g>
            </g>
          </g>
          <g id="Grupo_970936" data-name="Grupo 970936" transform="translate(172.033 66.264)">
            <g id="Grupo_970927" data-name="Grupo 970927">
              <path id="Trazado_661454" data-name="Trazado 661454" d="M316.523,145.279c1.253-2.157,1.606-3.9,1.035-7.711s-3.877-30.886-4.3-33.063c-.814-4.22-3.894-5.3-4.275-2.214s-.535,15.28-1.314,15.471-1.543-19.557-3.257-21.779-3.048-2.222-3.81-1.269a5.2,5.2,0,0,0-.953,1.634s-1.376-2.391-2.947-2.244c-2.863.268-2.914,3.788-2.914,3.788l-.234,8.368s-.234-6.728-2.17-7.646c-1.09-.517-2.591-.176-3.163,1.868s0,10.233,0,10.8-.253,21.9-.253,21.9a27.248,27.248,0,0,1-3.849-6.57c-1.108-2.688-2.945-3.715-5.23-3.144s-2.477,2.856-1.715,4.571,2.286,6.947,2.286,6.947l3.986,7.816,13.756,12.325,4.969,11.25s15.934-1.618,17.847-10.168Z" transform="translate(-276.776 -94.098)" fill="#b78876"/>
            </g>
            <g id="Grupo_970929" data-name="Grupo 970929" transform="translate(17.002 36.491)">
              <g id="Grupo_970928" data-name="Grupo 970928">
                <path id="Trazado_661455" data-name="Trazado 661455" d="M287.309,116.708a27.484,27.484,0,0,1,4.144,3.05,16,16,0,0,1,4.863,10.95c-.011.433-.021.859-.031,1.259l.827.124a35.426,35.426,0,0,1,4.354-10.687c1.544-2.515,2.737-3.894,2.633-3.981-.039-.034-.381.271-.943.883a25.913,25.913,0,0,0-2.172,2.787,31.885,31.885,0,0,0-4.692,10.814l.827.124c.011-.426.039-.88.037-1.338a15.658,15.658,0,0,0-1.77-6.83,16.041,16.041,0,0,0-3.529-4.54,13.781,13.781,0,0,0-3.211-2.152A4.007,4.007,0,0,0,287.309,116.708Z" transform="translate(-287.306 -116.7)" fill="#aa6550"/>
              </g>
            </g>
            <g id="Grupo_970931" data-name="Grupo 970931" transform="translate(17.308 28.517)">
              <g id="Grupo_970930" data-name="Grupo 970930">
                <path id="Trazado_661456" data-name="Trazado 661456" d="M287.5,111.942c0,.245,3.6.463,7.965,1.195,4.372.712,7.852,1.663,7.924,1.427.074-.205-3.344-1.532-7.789-2.257C291.156,111.564,287.493,111.724,287.5,111.942Z" transform="translate(-287.496 -111.76)" fill="#aa6550"/>
              </g>
            </g>
            <g id="Grupo_970933" data-name="Grupo 970933" transform="translate(22.725 1.963)">
              <g id="Grupo_970932" data-name="Grupo 970932">
                <path id="Trazado_661457" data-name="Trazado 661457" d="M291.752,120.412c.231-.006.262-5.63.068-12.56s-.541-12.545-.773-12.539-.261,5.63-.068,12.561S291.519,120.419,291.752,120.412Z" transform="translate(-290.851 -95.314)" fill="#aa6550"/>
              </g>
            </g>
            <g id="Grupo_970935" data-name="Grupo 970935" transform="translate(16.779 4.74)">
              <g id="Grupo_970934" data-name="Grupo 970934">
                <path id="Trazado_661458" data-name="Trazado 661458" d="M287.917,119.165c.232,0,.305-4.963.165-11.074s-.446-11.061-.677-11.056-.307,4.963-.165,11.076S287.685,119.171,287.917,119.165Z" transform="translate(-287.168 -97.034)" fill="#aa6550"/>
              </g>
            </g>
          </g>
          <g id="Grupo_970938" data-name="Grupo 970938" transform="translate(127.201 292.321)">
            <g id="Grupo_970937" data-name="Grupo 970937" transform="translate(0 0)">
              <path id="Trazado_661459" data-name="Trazado 661459" d="M249.013,244.9c.1.187,3.174-1.439,6.111-4.506,2.956-3.052,4.464-6.187,4.272-6.277-.216-.131-2.007,2.733-4.878,5.694C251.669,242.788,248.874,244.687,249.013,244.9Z" transform="translate(-249.008 -234.11)" fill="#263238"/>
            </g>
          </g>
          <g id="Grupo_970940" data-name="Grupo 970940" transform="translate(36.246 283.104)">
            <g id="Grupo_970939" data-name="Grupo 970939" transform="translate(0 0)">
              <path id="Trazado_661460" data-name="Trazado 661460" d="M228.248,230.183c-.031-.134-2.008.279-5.233.689a71.1,71.1,0,0,1-25.2-1.25c-3.168-.728-5.1-1.334-5.139-1.2a4.726,4.726,0,0,0,1.3.591c.852.336,2.115.748,3.694,1.188A59.175,59.175,0,0,0,223.1,231.46c1.615-.281,2.913-.567,3.794-.817A4.683,4.683,0,0,0,228.248,230.183Z" transform="translate(-192.674 -228.402)" fill="#263238"/>
            </g>
          </g>
          <g id="Grupo_970946" data-name="Grupo 970946" transform="translate(30.93 281.098)">
            <g id="Grupo_970941" data-name="Grupo 970941" transform="translate(0 0)">
              <path id="Trazado_661461" data-name="Trazado 661461" d="M212.06,594.15,190.388,302.257l-1.007-75.1,120.083,9.69L349.18,596.03l-47.641-1.206L252.933,293.49l2.312,299.253Z" transform="translate(-189.381 -227.159)" fill="#263238"/>
            </g>
            <g id="Grupo_970943" data-name="Grupo 970943" transform="translate(89.783 55.766)">
              <g id="Grupo_970942" data-name="Grupo 970942">
                <path id="Trazado_661462" data-name="Trazado 661462" d="M244.993,261.7c-.229.034,10.026,69.311,22.9,154.713,12.882,85.432,23.509,154.637,23.739,154.6s-10.025-69.3-22.907-154.729C255.851,330.884,245.223,261.664,244.993,261.7Z" transform="translate(-244.99 -261.699)" fill="#455a64"/>
              </g>
            </g>
            <g id="Grupo_970945" data-name="Grupo 970945" transform="translate(27.015 54.868)">
              <g id="Grupo_970944" data-name="Grupo 970944">
                <path id="Trazado_661463" data-name="Trazado 661463" d="M221.1,571.358s.008-.273-.016-.8c-.032-.563-.077-1.345-.134-2.349-.137-2.1-.338-5.139-.594-9.032-.528-7.877-1.287-19.215-2.225-33.208-1.842-28.043-4.186-66.8-6.258-109.623-2.062-42.844-3.458-81.646-4.324-109.736-.413-14.017-.749-25.374-.982-33.266-.119-3.9-.213-6.939-.278-9.045-.04-1.006-.071-1.787-.094-2.352-.026-.53-.061-.8-.061-.8s-.023.271-.026.8l.011,2.352c.027,2.107.068,5.149.119,9.049.116,7.858.355,19.228.715,33.276.714,28.1,2.017,66.908,4.078,109.759,2.071,42.834,4.509,81.588,6.5,109.623,1,14.017,1.852,25.358,2.493,33.192.324,3.888.576,6.92.752,9.02q.138,1.5.216,2.343C221.056,571.088,221.1,571.358,221.1,571.358Z" transform="translate(-206.113 -261.143)" fill="#455a64"/>
              </g>
            </g>
          </g>
          <g id="Grupo_970981" data-name="Grupo 970981" transform="translate(0 104.393)">
            <g id="Grupo_970947" data-name="Grupo 970947" transform="translate(24.375 0.121)">
              <path id="Trazado_661464" data-name="Trazado 661464" d="M275.295,122.042l8.475,12.543s27.076,3.494,31.369,5.452,5.911,8.914,5.911,8.914L313.408,241.3s-1.926,39.235-1.676,45.366h0s0,6.13.255,10.543a91.839,91.839,0,0,1-.725,12.261s-34.566,8.614-37.509,8.371-17.658-3.418-17.658-3.418l-44.384-1.676L197.485,308.1l-2.7-7.6,1.715-3.19s-6.137-7.106-6.631-10.782,1.681-39.971,1.681-39.971l-.01-10.543-6.214-93.663s7.834-5.021,12.2-5.817c12.233-2.226,23.032-5.313,23.032-5.313l11.7-13.433Z" transform="translate(-185.321 -117.789)" fill="#e0e0e0"/>
            </g>
            <g id="Grupo_970949" data-name="Grupo 970949" transform="translate(94.511 45.519)">
              <g id="Grupo_970948" data-name="Grupo 970948">
                <path id="Trazado_661465" data-name="Trazado 661465" d="M230.2,145.907a1.41,1.41,0,0,0,0,.389l.086,1.137.405,4.358c.388,3.78.875,9.256,1.395,16.028s1.006,14.846,1.369,23.816c.321,8.972.509,18.843.425,29.2-.113,10.364-.489,20.23-.982,29.2-.533,8.964-1.161,17.027-1.823,23.787s-1.24,12.227-1.7,16q-.31,2.751-.489,4.348l-.107,1.135a1.447,1.447,0,0,0-.008.391,1.331,1.331,0,0,0,.094-.379c.05-.3.113-.672.189-1.122q.237-1.589.646-4.33c.559-3.76,1.24-9.219,1.967-15.979s1.427-14.828,2-23.8c.536-8.975.935-18.856,1.049-29.235.084-10.377-.128-20.261-.492-29.243-.405-8.982-.94-17.063-1.55-23.834s-1.175-12.245-1.661-16.015q-.356-2.746-.563-4.342l-.168-1.127A1.31,1.31,0,0,0,230.2,145.907Z" transform="translate(-228.761 -145.907)" fill="#263238"/>
              </g>
            </g>
            <g id="Grupo_970950" data-name="Grupo 970950" transform="translate(0.35 24.685)">
              <path id="Trazado_661466" data-name="Trazado 661466" d="M268.577,155.5l-27.1,36.09a163.8,163.8,0,0,1-10.31,14.589c-6.636,8.494-29.69,24.756-34.487,25.683s-13.286,1.857-18.646-7.735-7.593-30.442-7.593-30.442L194.465,133s9.145,5.288,13.582,13.958,4.761,26.94,4.761,26.94l25.474-22.928,11.171-13.294Z" transform="translate(-170.441 -133.003)" fill="#e0e0e0"/>
            </g>
            <g id="Grupo_970952" data-name="Grupo 970952" transform="translate(26.564 65.478)">
              <g id="Grupo_970951" data-name="Grupo 970951">
                <path id="Trazado_661467" data-name="Trazado 661467" d="M186.685,178.071a10.08,10.08,0,0,0,2.338-3.332c1.216-2.215,2.294-5.533,4-8.869a17.065,17.065,0,0,1,3.029-4.248,11.143,11.143,0,0,1,3.5-2.351,12.564,12.564,0,0,1,3.864-.739c.008-.045-.365-.189-1.079-.245a7.677,7.677,0,0,0-2.993.428,10.905,10.905,0,0,0-3.831,2.348,16.556,16.556,0,0,0-3.237,4.416c-1.763,3.454-2.733,6.765-3.793,9C187.483,176.739,186.582,177.992,186.685,178.071Z" transform="translate(-186.677 -158.269)" fill="#263238"/>
              </g>
            </g>
            <g id="Grupo_970954" data-name="Grupo 970954" transform="translate(68.182 42.651)">
              <g id="Grupo_970953" data-name="Grupo 970953">
                <path id="Trazado_661468" data-name="Trazado 661468" d="M212.464,144.134a12.808,12.808,0,0,0,1.568,3.663,30.467,30.467,0,0,0,5.932,7.588,29.682,29.682,0,0,0,8.042,5.305,12.66,12.66,0,0,0,3.791,1.234c.139-.271-5.822-2.071-11.261-7.156C215.062,149.734,212.727,143.968,212.464,144.134Z" transform="translate(-212.454 -144.131)" fill="#263238"/>
              </g>
            </g>
            <g id="Grupo_970956" data-name="Grupo 970956" transform="translate(86.323 46.678)">
              <g id="Grupo_970955" data-name="Grupo 970955">
                <path id="Trazado_661469" data-name="Trazado 661469" d="M227.53,146.961c.01-.055-.2-.163-.617-.258a2.551,2.551,0,0,0-1.863.234,2.984,2.984,0,0,0-1.355,2.473,2.805,2.805,0,0,0,2.044,2.762,2.774,2.774,0,0,0,1.891-.09,2.838,2.838,0,0,0,1.308-1.164,2.913,2.913,0,0,0,.082-2.8,2.229,2.229,0,0,0-1.374-1.285c-.447-.108-.689-.011-.686.034-.044.119,1.062.128,1.511,1.477a2.362,2.362,0,0,1-.191,2.17,2,2,0,0,1-2.3.857,2.049,2.049,0,0,1-1.51-1.955,2.461,2.461,0,0,1,.9-1.978,2.563,2.563,0,0,1,1.506-.405C227.284,147.021,227.52,147.021,227.53,146.961Z" transform="translate(-223.689 -146.625)" fill="#263238"/>
              </g>
            </g>
            <g id="Grupo_970957" data-name="Grupo 970957" transform="translate(153.839 20.263)">
              <path id="Trazado_661470" data-name="Trazado 661470" d="M328.452,130.264l8.841,15.566,5.52,1.926s23.756,35.967,10.525,47.64-34.878,11.039-42.329,7.459-45.5-20.8-45.5-20.8l.354-49.681s11.526,5.543,19.479,12.329c4.755,4.057,27.546,17.151,27.546,17.151l-6.77-20.6Z" transform="translate(-265.507 -130.264)" fill="#e0e0e0"/>
            </g>
            <g id="Grupo_970958" data-name="Grupo 970958" transform="translate(100.522 3.652)">
              <path id="Trazado_661471" data-name="Trazado 661471" d="M257.117,135.968a30.776,30.776,0,0,0,4.752,16.583,64.619,64.619,0,0,1-20.589-13.063,37.244,37.244,0,0,1-8.8,8.762c1.986-4.936,5.5-9.071,8.473-13.481s5.522-9.487,5.141-14.793Z" transform="translate(-232.484 -119.976)" fill="#e0e0e0"/>
            </g>
            <g id="Grupo_970960" data-name="Grupo 970960" transform="translate(58.098 132.46)">
              <g id="Grupo_970959" data-name="Grupo 970959">
                <path id="Trazado_661472" data-name="Trazado 661472" d="M206.211,199.756a17.5,17.5,0,0,0,1.531,2.33c.507.741,1.15,1.632,1.955,2.622s1.669,2.162,2.75,3.352a94.923,94.923,0,0,0,7.873,8.087,97.07,97.07,0,0,0,22.822,15.493,94.238,94.238,0,0,0,10.422,4.333c1.5.567,2.909.946,4.128,1.321s2.283.651,3.16.849a17.419,17.419,0,0,0,2.73.562,17.892,17.892,0,0,0-2.645-.877c-.859-.247-1.907-.56-3.1-.983s-2.585-.831-4.067-1.43a105.464,105.464,0,0,1-10.28-4.469,103.093,103.093,0,0,1-22.646-15.375,105.71,105.71,0,0,1-7.947-7.9c-1.1-1.158-2-2.291-2.83-3.253s-1.513-1.815-2.059-2.524A17.787,17.787,0,0,0,206.211,199.756Z" transform="translate(-206.208 -199.755)" fill="#263238"/>
              </g>
            </g>
            <g id="Grupo_970962" data-name="Grupo 970962" transform="translate(112.693 16.917)">
              <g id="Grupo_970961" data-name="Grupo 970961">
                <path id="Trazado_661473" data-name="Trazado 661473" d="M240.026,134.629a4.876,4.876,0,0,0,.744,1.545,16.124,16.124,0,0,0,3.081,3.526c2.929,2.7,7.748,5.318,12.749,8.493l.4.263.936.609-.3-1.069a136.171,136.171,0,0,0-4.891-14.189c-.718-1.773-1.338-3.19-1.8-4.157a6,6,0,0,0-.8-1.458,7.022,7.022,0,0,0,.505,1.582q.642,1.761,1.545,4.243c1.277,3.594,3.069,8.572,4.627,14.2l.641-.46-.41-.266c-5.075-3.219-9.862-5.716-12.823-8.241A23.506,23.506,0,0,1,240.026,134.629Z" transform="translate(-240.023 -128.192)" fill="#263238"/>
              </g>
            </g>
            <g id="Grupo_970964" data-name="Grupo 970964" transform="translate(150.744 53.189)">
              <g id="Grupo_970963" data-name="Grupo 970963">
                <path id="Trazado_661474" data-name="Trazado 661474" d="M263.632,266.467a6.161,6.161,0,0,0,.127-1.175c.052-.856.12-1.978.205-3.378.144-3.029.346-7.251.593-12.427.22-5.278.481-11.517.77-18.435.158-3.466.239-7.114.471-10.88.315-3.765.641-7.661.974-11.652,2.559-31.085,4.392-53.358,4.761-57.861a4.169,4.169,0,0,0-.27,1.154c-.126.765-.271,1.9-.446,3.357-.342,2.919-.78,7.149-1.284,12.379-1,10.459-2.272,24.921-3.6,40.9-.328,4-.649,7.9-.957,11.668-.223,3.775-.286,7.42-.423,10.892-.221,6.925-.421,13.168-.591,18.449-.136,5.183-.247,9.41-.326,12.442-.019,1.4-.034,2.527-.047,3.384A6.3,6.3,0,0,0,263.632,266.467Z" transform="translate(-263.59 -150.657)" fill="#263238"/>
              </g>
            </g>
            <g id="Grupo_970966" data-name="Grupo 970966" transform="translate(199.04 46.619)">
              <g id="Grupo_970965" data-name="Grupo 970965">
                <path id="Trazado_661475" data-name="Trazado 661475" d="M293.513,146.589c-.124.063,1,2.344,2.464,6.168a82.821,82.821,0,0,1,4.19,15.387,79.559,79.559,0,0,1,.99,8.728c.2,2.691.027,5.139.4,7.235a6.5,6.5,0,0,0,2.451,4.261,3.665,3.665,0,0,0,1.224.588c.3.076.467.074.471.052a8.7,8.7,0,0,1-1.5-.9,6.421,6.421,0,0,1-2.065-4.1c-.284-1.971-.058-4.445-.215-7.175a71.122,71.122,0,0,0-5.4-24.3c-.81-1.9-1.542-3.4-2.083-4.414A7.38,7.38,0,0,0,293.513,146.589Z" transform="translate(-293.503 -146.588)" fill="#263238"/>
              </g>
            </g>
            <g id="Grupo_970968" data-name="Grupo 970968" transform="translate(201.228 51.812)">
              <g id="Grupo_970967" data-name="Grupo 970967">
                <path id="Trazado_661476" data-name="Trazado 661476" d="M296.091,180.016a21.4,21.4,0,0,0,.378-4.427c.1-2.74.124-6.532-.037-10.714s-.481-7.961-.8-10.687a21.25,21.25,0,0,0-.72-4.383,25.5,25.5,0,0,0,.129,4.435c.161,2.73.384,6.5.547,10.667s.233,7.942.283,10.677A25.483,25.483,0,0,0,296.091,180.016Z" transform="translate(-294.858 -149.805)" fill="#263238"/>
              </g>
            </g>
            <g id="Grupo_970970" data-name="Grupo 970970" transform="translate(200.591 35.559)">
              <g id="Grupo_970969" data-name="Grupo 970969">
                <path id="Trazado_661477" data-name="Trazado 661477" d="M294.464,153.082a14.137,14.137,0,0,0,4.262-.375,34.542,34.542,0,0,0,18.026-9.629,14.1,14.1,0,0,0,2.68-3.334c-.2-.213-4.279,5.042-11.362,8.77C301.037,152.33,294.4,152.8,294.464,153.082Z" transform="translate(-294.464 -139.738)" fill="#263238"/>
              </g>
            </g>
            <g id="Grupo_970972" data-name="Grupo 970972" transform="translate(200.824 33.763)">
              <g id="Grupo_970971" data-name="Grupo 970971">
                <path id="Trazado_661478" data-name="Trazado 661478" d="M298.94,139.468a3.432,3.432,0,0,1,.284,1.883,2.208,2.208,0,0,1-1.091,1.518,2.006,2.006,0,0,1-2.573-2.512,2.206,2.206,0,0,1,1.492-1.127,3.441,3.441,0,0,1,1.889.239c.032-.029-.055-.239-.378-.47a2.359,2.359,0,0,0-1.611-.355,2.718,2.718,0,0,0-2.086,1.369,2.729,2.729,0,0,0,3.628,3.542,2.714,2.714,0,0,0,1.319-2.118,2.359,2.359,0,0,0-.394-1.6C299.18,139.518,298.967,139.434,298.94,139.468Z" transform="translate(-294.608 -138.626)" fill="#263238"/>
              </g>
            </g>
            <g id="Grupo_970973" data-name="Grupo 970973" transform="translate(121.328 54.003)">
              <path id="Trazado_661479" data-name="Trazado 661479" d="M245.513,154.628c-.426-.244.241,10.488.241,10.488s1.111,6.723,9.553,6.318c8.964-.428,8.221-8.932,8.221-8.932l-.484-7.89a7.377,7.377,0,0,1-8.555-3.45S250.525,157.486,245.513,154.628Z" transform="translate(-245.371 -151.162)" fill="#e8505b"/>
            </g>
            <g id="Grupo_970975" data-name="Grupo 970975" transform="translate(0 28.726)">
              <g id="Grupo_970974" data-name="Grupo 970974">
                <path id="Trazado_661480" data-name="Trazado 661480" d="M193,135.506s-.17.333-.452,1q-.438,1.056-1.227,2.964c-1.07,2.646-2.62,6.476-4.6,11.358-3.946,9.875-9.6,24.007-16.465,41.192l-.036.089.018.1c1.069,6.021,2.2,12.417,3.4,19.136a34.182,34.182,0,0,0,3.29,10.03,27.846,27.846,0,0,0,2.982,4.6,20.693,20.693,0,0,0,1.9,2.057,11.19,11.19,0,0,0,2.383,1.6c3.426,1.816,7.514,1.921,11.32,1.279a15.054,15.054,0,0,0,5.64-1.815l4.947-3.224A164.673,164.673,0,0,0,225.627,211.3a105.994,105.994,0,0,0,13.108-14.176c3.917-4.96,7.513-10,10.911-14.975,6.791-9.954,13.012-19.528,19.358-27.962l.2-.265-.242-.226L249.8,135.91l-.226-.21-.215.218-26.257,26.693c-3.071,3.152-5.468,5.611-7.128,7.312l-1.839,1.921c-.412.436-.605.677-.605.677s.239-.2.672-.612l1.9-1.857c1.687-1.674,4.125-4.093,7.248-7.193l26.456-26.5-.439.008,19.087,17.862-.044-.491c-6.39,8.439-12.645,18.015-19.441,27.945-3.4,4.963-6.989,9.983-10.892,14.917a105.7,105.7,0,0,1-13.016,14.068,164.927,164.927,0,0,1-19.423,14.507L200.72,228.4a14.314,14.314,0,0,1-5.343,1.711c-3.709.63-7.6.518-10.818-1.182a10.55,10.55,0,0,1-2.214-1.474,19.7,19.7,0,0,1-1.826-1.97,27.2,27.2,0,0,1-2.906-4.461,33.459,33.459,0,0,1-3.24-9.8c-1.217-6.72-2.377-13.118-3.468-19.14l-.016.19c6.755-17.232,12.313-31.4,16.194-41.3,1.9-4.913,3.394-8.764,4.426-11.426q.731-1.933,1.135-3C192.894,135.864,193,135.506,193,135.506Z" transform="translate(-170.224 -135.506)" fill="#263238"/>
              </g>
            </g>
            <g id="Grupo_970976" data-name="Grupo 970976" transform="translate(59.795 0.16)">
              <path id="Trazado_661481" data-name="Trazado 661481" d="M207.259,131.942c.588,6.4,7.911,19.044,10.2,22.6,0,0,4.744-9.406,7.227-14.531l.93,7.327c1.988-1.8.192-12.054.505-11.965l-6.968-17.557Z" transform="translate(-207.259 -117.813)" fill="#e0e0e0"/>
            </g>
            <g id="Grupo_970978" data-name="Grupo 970978" transform="translate(59.214)">
              <g id="Grupo_970977" data-name="Grupo 970977">
                <path id="Trazado_661482" data-name="Trazado 661482" d="M220.414,117.976a6.76,6.76,0,0,0-1.4-.253l-.053-.008-.044.047c-1.868,1.981-6.2,6.809-11.894,13.267l-.12.136.039.184a61.885,61.885,0,0,0,6.65,17.448c1.192,2.125,2.464,4.14,3.754,6.035l.431.631.294-.707c1.514-3.636,3.424-6.883,4.976-9.942a41.6,41.6,0,0,0,3.5-8.535l-.541.052c1.28,2.874,2.328,5.23,3.114,6.994a18.155,18.155,0,0,0,1.238,2.509,18.374,18.374,0,0,0-.945-2.627c-.728-1.8-1.7-4.2-2.885-7.127l-.313-.772-.228.823a43.4,43.4,0,0,1-3.591,8.341c-1.581,3.024-3.521,6.256-5.089,9.971l.725-.076c-1.272-1.886-2.528-3.883-3.705-5.984a63.742,63.742,0,0,1-6.67-17.2l-.081.32c5.617-6.528,9.808-11.475,11.515-13.6l-.1.039A6.757,6.757,0,0,0,220.414,117.976Z" transform="translate(-206.899 -117.714)" fill="#263238"/>
              </g>
            </g>
            <g id="Grupo_970980" data-name="Grupo 970980" transform="translate(43.157 46.22)">
              <g id="Grupo_970979" data-name="Grupo 970979">
                <path id="Trazado_661483" data-name="Trazado 661483" d="M199.812,146.341c-.229-.029-.986,4.406-1.821,9.891-.413,2.745-.759,5.236-.928,7.054a16.607,16.607,0,0,0-.1,2.175,1.413,1.413,0,0,0,.129.628c.092.137.237.023.223,0,.021-.039.023-.06.011-.069-.218.371.014-.914.326-2.649.32-1.786.757-4.262,1.171-7.009C199.658,150.865,200.043,146.369,199.812,146.341Z" transform="translate(-196.954 -146.341)" fill="#263238"/>
              </g>
            </g>
          </g>
          <g id="Grupo_971088" data-name="Grupo 971088" transform="translate(57.579)">
            <g id="Grupo_971064" data-name="Grupo 971064" transform="translate(3.292 30.041)">
              <g id="Grupo_971063" data-name="Grupo 971063">
                <g id="Grupo_970996" data-name="Grupo 970996" transform="translate(9.229)">
                  <g id="Grupo_970995" data-name="Grupo 970995">
                    <g id="Grupo_970994" data-name="Grupo 970994">
                      <g id="Grupo_970987" data-name="Grupo 970987">
                        <g id="Grupo_970986" data-name="Grupo 970986">
                          <g id="Grupo_970985" data-name="Grupo 970985">
                            <g id="Grupo_970984" data-name="Grupo 970984">
                              <g id="Grupo_970983" data-name="Grupo 970983">
                                <g id="Grupo_970982" data-name="Grupo 970982">
                                  <path id="Trazado_661484" data-name="Trazado 661484" d="M236.439,174.646h0a19.935,19.935,0,0,0,20.327-20.9c-.184-3.81-.336-6.574-.336-6.574s15.968-2.073,16.564-17.97-1.238-52.484-1.238-52.484h0A55.285,55.285,0,0,0,216.044,82.3l-2.4,1.755,2.628,62.218s7.017,23.224,12.351,26.595C231.591,174.749,232.689,174.568,236.439,174.646Z" transform="translate(-213.642 -71.662)" fill="#b78876"/>
                                </g>
                              </g>
                            </g>
                          </g>
                        </g>
                      </g>
                      <g id="Grupo_970993" data-name="Grupo 970993" transform="translate(22.236 68.871)">
                        <g id="Grupo_970992" data-name="Grupo 970992">
                          <g id="Grupo_970991" data-name="Grupo 970991">
                            <g id="Grupo_970990" data-name="Grupo 970990">
                              <g id="Grupo_970989" data-name="Grupo 970989">
                                <g id="Grupo_970988" data-name="Grupo 970988">
                                  <path id="Trazado_661485" data-name="Trazado 661485" d="M247.967,120.961a38.434,38.434,0,0,1-20.553-6.642s4.771,11.554,20.676,10.52Z" transform="translate(-227.414 -114.319)" fill="#aa6550"/>
                                </g>
                              </g>
                            </g>
                          </g>
                        </g>
                      </g>
                    </g>
                  </g>
                </g>
                <g id="Grupo_971010" data-name="Grupo 971010" transform="translate(0 28.324)">
                  <g id="Grupo_971002" data-name="Grupo 971002">
                    <g id="Grupo_971001" data-name="Grupo 971001">
                      <g id="Grupo_971000" data-name="Grupo 971000">
                        <g id="Grupo_970999" data-name="Grupo 970999">
                          <g id="Grupo_970998" data-name="Grupo 970998">
                            <g id="Grupo_970997" data-name="Grupo 970997">
                              <path id="Trazado_661486" data-name="Trazado 661486" d="M218.7,89.8c-.268-.124-10.845-3.508-10.772,7.374s10.982,8.564,11,8.25S218.7,89.8,218.7,89.8Z" transform="translate(-207.926 -89.206)" fill="#b78876"/>
                            </g>
                          </g>
                        </g>
                      </g>
                    </g>
                  </g>
                  <g id="Grupo_971009" data-name="Grupo 971009" transform="translate(2.764 3.522)">
                    <g id="Grupo_971008" data-name="Grupo 971008">
                      <g id="Grupo_971007" data-name="Grupo 971007">
                        <g id="Grupo_971006" data-name="Grupo 971006">
                          <g id="Grupo_971005" data-name="Grupo 971005">
                            <g id="Grupo_971004" data-name="Grupo 971004">
                              <g id="Grupo_971003" data-name="Grupo 971003">
                                <path id="Trazado_661487" data-name="Trazado 661487" d="M214.522,99.983c-.048-.036-.189.134-.509.283a1.894,1.894,0,0,1-1.416.039c-1.153-.413-2.133-2.233-2.2-4.193a6.265,6.265,0,0,1,.512-2.717,2.189,2.189,0,0,1,1.416-1.464.962.962,0,0,1,1.122.512c.148.3.081.52.139.539.031.026.233-.184.142-.633a1.216,1.216,0,0,0-.433-.68,1.434,1.434,0,0,0-1.051-.27,2.663,2.663,0,0,0-1.968,1.7,6.432,6.432,0,0,0-.636,3.037c.084,2.193,1.221,4.237,2.8,4.681a2.022,2.022,0,0,0,1.731-.3C214.5,100.246,214.559,100,214.522,99.983Z" transform="translate(-209.638 -91.387)" fill="#aa6550"/>
                              </g>
                            </g>
                          </g>
                        </g>
                      </g>
                    </g>
                  </g>
                </g>
                <g id="Grupo_971062" data-name="Grupo 971062" transform="translate(29.555 19.085)">
                  <g id="Grupo_971061" data-name="Grupo 971061">
                    <g id="Grupo_971048" data-name="Grupo 971048" transform="translate(1.207 5.619)">
                      <g id="Grupo_971047" data-name="Grupo 971047">
                        <g id="Grupo_971046" data-name="Grupo 971046">
                          <g id="Grupo_971024" data-name="Grupo 971024" transform="translate(24.034 0.15)">
                            <g id="Grupo_971016" data-name="Grupo 971016" transform="translate(1.883 3.447)">
                              <g id="Grupo_971015" data-name="Grupo 971015">
                                <g id="Grupo_971014" data-name="Grupo 971014">
                                  <g id="Grupo_971013" data-name="Grupo 971013">
                                    <g id="Grupo_971012" data-name="Grupo 971012">
                                      <g id="Grupo_971011" data-name="Grupo 971011">
                                        <path id="Trazado_661488" data-name="Trazado 661488" d="M247.568,91.3a2.271,2.271,0,0,1-2.247,2.236,2.173,2.173,0,0,1-2.289-2.107,2.275,2.275,0,0,1,2.246-2.238A2.175,2.175,0,0,1,247.568,91.3Z" transform="translate(-243.031 -89.191)" fill="#263238"/>
                                      </g>
                                    </g>
                                  </g>
                                </g>
                              </g>
                            </g>
                            <g id="Grupo_971023" data-name="Grupo 971023">
                              <g id="Grupo_971022" data-name="Grupo 971022">
                                <g id="Grupo_971021" data-name="Grupo 971021">
                                  <g id="Grupo_971020" data-name="Grupo 971020">
                                    <g id="Grupo_971019" data-name="Grupo 971019">
                                      <g id="Grupo_971018" data-name="Grupo 971018">
                                        <g id="Grupo_971017" data-name="Grupo 971017">
                                          <path id="Trazado_661489" data-name="Trazado 661489" d="M250.839,89.557c-.289.289-1.978-1.027-4.422-1.082-2.441-.09-4.266,1.121-4.524.815-.126-.136.174-.664.969-1.213a6.229,6.229,0,0,1,3.631-1.019A5.984,5.984,0,0,1,250,88.291C250.739,88.885,250.981,89.428,250.839,89.557Z" transform="translate(-241.865 -87.056)" fill="#263238"/>
                                        </g>
                                      </g>
                                    </g>
                                  </g>
                                </g>
                              </g>
                            </g>
                          </g>
                          <g id="Grupo_971038" data-name="Grupo 971038">
                            <g id="Grupo_971030" data-name="Grupo 971030" transform="translate(2.149 3.597)">
                              <g id="Grupo_971029" data-name="Grupo 971029">
                                <g id="Grupo_971028" data-name="Grupo 971028">
                                  <g id="Grupo_971027" data-name="Grupo 971027">
                                    <g id="Grupo_971026" data-name="Grupo 971026">
                                      <g id="Grupo_971025" data-name="Grupo 971025">
                                        <path id="Trazado_661490" data-name="Trazado 661490" d="M232.847,91.3a2.273,2.273,0,0,1-2.247,2.236,2.173,2.173,0,0,1-2.289-2.107,2.274,2.274,0,0,1,2.246-2.238A2.176,2.176,0,0,1,232.847,91.3Z" transform="translate(-228.31 -89.191)" fill="#263238"/>
                                      </g>
                                    </g>
                                  </g>
                                </g>
                              </g>
                            </g>
                            <g id="Grupo_971037" data-name="Grupo 971037">
                              <g id="Grupo_971036" data-name="Grupo 971036">
                                <g id="Grupo_971035" data-name="Grupo 971035">
                                  <g id="Grupo_971034" data-name="Grupo 971034">
                                    <g id="Grupo_971033" data-name="Grupo 971033">
                                      <g id="Grupo_971032" data-name="Grupo 971032">
                                        <g id="Grupo_971031" data-name="Grupo 971031">
                                          <path id="Trazado_661491" data-name="Trazado 661491" d="M235.953,89.464c-.289.289-1.979-1.027-4.422-1.082-2.44-.09-4.266,1.122-4.524.815-.126-.136.171-.662.97-1.211a6.235,6.235,0,0,1,3.629-1.02,5.984,5.984,0,0,1,3.51,1.232C235.851,88.794,236.093,89.336,235.953,89.464Z" transform="translate(-226.979 -86.963)" fill="#263238"/>
                                        </g>
                                      </g>
                                    </g>
                                  </g>
                                </g>
                              </g>
                            </g>
                          </g>
                          <g id="Grupo_971045" data-name="Grupo 971045" transform="translate(16.753 0.458)">
                            <g id="Grupo_971044" data-name="Grupo 971044">
                              <g id="Grupo_971043" data-name="Grupo 971043">
                                <g id="Grupo_971042" data-name="Grupo 971042">
                                  <g id="Grupo_971041" data-name="Grupo 971041">
                                    <g id="Grupo_971040" data-name="Grupo 971040">
                                      <g id="Grupo_971039" data-name="Grupo 971039">
                                        <path id="Trazado_661492" data-name="Trazado 661492" d="M237.988,107.637c-.006-.139,1.519-.363,3.988-.615.626-.05,1.219-.158,1.335-.581a3.177,3.177,0,0,0-.37-1.86l-1.726-4.8c-2.393-6.831-4.107-12.44-3.831-12.534s2.44,5.365,4.831,12.2q.862,2.526,1.648,4.824a3.614,3.614,0,0,1,.262,2.457,1.566,1.566,0,0,1-1.049.886,4.3,4.3,0,0,1-1.064.121C239.531,107.8,237.994,107.776,237.988,107.637Z" transform="translate(-237.355 -87.247)" fill="#263238"/>
                                      </g>
                                    </g>
                                  </g>
                                </g>
                              </g>
                            </g>
                          </g>
                        </g>
                      </g>
                    </g>
                    <g id="Grupo_971054" data-name="Grupo 971054">
                      <g id="Grupo_971053" data-name="Grupo 971053">
                        <g id="Grupo_971052" data-name="Grupo 971052">
                          <g id="Grupo_971051" data-name="Grupo 971051">
                            <g id="Grupo_971050" data-name="Grupo 971050">
                              <g id="Grupo_971049" data-name="Grupo 971049">
                                <path id="Trazado_661493" data-name="Trazado 661493" d="M237.442,85.795c-.3.639-2.7.1-5.591.171-2.89.016-5.272.635-5.594.006-.142-.3.318-.885,1.309-1.439a9.732,9.732,0,0,1,8.522-.134C237.1,84.921,237.575,85.491,237.442,85.795Z" transform="translate(-226.231 -83.483)" fill="#263238"/>
                              </g>
                            </g>
                          </g>
                        </g>
                      </g>
                    </g>
                    <g id="Grupo_971060" data-name="Grupo 971060" transform="translate(25.371 1.356)">
                      <g id="Grupo_971059" data-name="Grupo 971059">
                        <g id="Grupo_971058" data-name="Grupo 971058">
                          <g id="Grupo_971057" data-name="Grupo 971057">
                            <g id="Grupo_971056" data-name="Grupo 971056">
                              <g id="Grupo_971055" data-name="Grupo 971055">
                                <path id="Trazado_661494" data-name="Trazado 661494" d="M251.419,86.54c-.449.588-2.4.142-4.7.271-2.3.058-4.217.66-4.7.111-.216-.268.052-.843.867-1.426a7.19,7.19,0,0,1,3.755-1.167,7.1,7.1,0,0,1,3.822.859C251.311,85.7,251.617,86.256,251.419,86.54Z" transform="translate(-241.946 -84.323)" fill="#263238"/>
                              </g>
                            </g>
                          </g>
                        </g>
                      </g>
                    </g>
                  </g>
                </g>
              </g>
            </g>
            <g id="Grupo_971065" data-name="Grupo 971065" transform="translate(43.659 79.853)">
              <path id="Trazado_661495" data-name="Trazado 661495" d="M233.9,103.419a3.677,3.677,0,0,1,2.351-.9,8.746,8.746,0,0,1,2.538.347,3.979,3.979,0,0,1,2.54,1.456,2.835,2.835,0,0,1,.307,1.965c-.111.668-.231,3.079-1.555,3.676h-5.712a7,7,0,0,1-1.379-3.5A3.388,3.388,0,0,1,233.9,103.419Z" transform="translate(-232.928 -102.515)" fill="#aa6550"/>
            </g>
            <g id="Grupo_971067" data-name="Grupo 971067" transform="translate(43.508 79.358)">
              <g id="Grupo_971066" data-name="Grupo 971066">
                <path id="Trazado_661496" data-name="Trazado 661496" d="M235.766,110.179c-.034-.061-.262.071-.649-.01a1.571,1.571,0,0,1-1.14-1.067,11.3,11.3,0,0,1-.342-2.648,3.8,3.8,0,0,1,.833-2.874c.694-.8,1.807-.536,2.835-.355a11.927,11.927,0,0,1,2.622.656c1.395.6,1.653,1.686,1.787,1.61.047-.015.048-.276-.136-.714a3.155,3.155,0,0,0-1.385-1.427,10.125,10.125,0,0,0-2.729-.882,7.8,7.8,0,0,0-1.715-.257,2.507,2.507,0,0,0-1.883.781,4.4,4.4,0,0,0-1,3.505,9.618,9.618,0,0,0,.568,2.84,1.866,1.866,0,0,0,1.663,1.158C235.612,110.476,235.8,110.2,235.766,110.179Z" transform="translate(-232.834 -102.208)" fill="#263238"/>
              </g>
            </g>
            <g id="Grupo_971068" data-name="Grupo 971068" transform="translate(6.75 38.111)">
              <path id="Trazado_661497" data-name="Trazado 661497" d="M229.372,83.914a9.048,9.048,0,0,1,.249,5.062c-.562,1.618-2.507,2.874-4.023,2.071a12.863,12.863,0,0,1,.592,5.105,6.859,6.859,0,0,1-2.278,4.5,4.716,4.716,0,0,1-4.842.785,3.62,3.62,0,0,1-1.97-4.282c-1.44,1.062-3.715.228-4.5-1.38a4.962,4.962,0,0,1,.788-5.037,3.341,3.341,0,0,1-3.255-2.869,6.4,6.4,0,0,1,1.216-4.487c.87-1.327,1.989-2.473,2.9-3.776.788-1.133,1.542-2.485,2.872-2.853a4.778,4.778,0,0,1,3.19.614,52.888,52.888,0,0,1,9.561,5.736" transform="translate(-210.068 -76.661)" fill="#263238"/>
            </g>
            <g id="Grupo_971075" data-name="Grupo 971075">
              <g id="Grupo_971069" data-name="Grupo 971069">
                <path id="Trazado_661498" data-name="Trazado 661498" d="M214.614,88.264s-7.417.867-8.449-4.1c-2.709-13.047,15.251-18.58,15.251-18.58s6.29-1.665,16.583-5.468a66.915,66.915,0,0,0,11.452-5.541,10.194,10.194,0,0,1,10.851.1,84.623,84.623,0,0,0,19.031,9.356s7.036,1.836,6.994,10.987c-.019,4.2-7.156,7.332-7.156,7.332Z" transform="translate(-205.887 -53.056)" fill="#263238"/>
              </g>
              <g id="Grupo_971070" data-name="Grupo 971070" transform="translate(8.661 26.109)">
                <path id="Trazado_661499" data-name="Trazado 661499" d="M212.47,85.547l-1.219-7.629s42.146-15.195,63.8-5.4v8.62Z" transform="translate(-211.251 -69.227)" fill="#455a64"/>
              </g>
              <g id="Grupo_971071" data-name="Grupo 971071" transform="translate(12.229 38.017)">
                <path id="Trazado_661500" data-name="Trazado 661500" d="M284.958,82.235s-5.226,4.225-16.686,4.8c-20.858,1.045-54.811-6.184-54.811-6.184L273.695,76.6Z" transform="translate(-213.461 -76.603)" fill="#263238"/>
              </g>
              <g id="Grupo_971072" data-name="Grupo 971072" transform="translate(44.192 13.915)">
                <path id="Trazado_661501" data-name="Trazado 661501" d="M233.387,64.8c-.384-.221.21,9.461.21,9.461s1,6.066,8.614,5.709c8.086-.379,7.424-8.053,7.424-8.053L249.2,64.8a6.657,6.657,0,0,1-7.716-3.121S237.906,67.378,233.387,64.8Z" transform="translate(-233.258 -61.675)" fill="#e0e0e0"/>
              </g>
              <g id="Grupo_971074" data-name="Grupo 971074" transform="translate(10.091 42.695)">
                <g id="Grupo_971073" data-name="Grupo 971073">
                  <path id="Trazado_661502" data-name="Trazado 661502" d="M212.137,79.529a7.651,7.651,0,0,0,1.781.407l4.9.823c4.138.667,9.852,1.6,16.189,2.494s12.112,1.51,16.3,1.77c2.094.134,3.793.205,4.966.215a7.6,7.6,0,0,0,1.828-.066,7.649,7.649,0,0,0-1.808-.262l-4.937-.48c-4.166-.412-9.905-1.111-16.234-2.01S223.061,80.688,218.9,80.17c-2.081-.26-3.767-.452-4.937-.559A7.56,7.56,0,0,0,212.137,79.529Z" transform="translate(-212.137 -79.5)" fill="#455a64"/>
                </g>
              </g>
            </g>
            <g id="Grupo_971087" data-name="Grupo 971087" transform="translate(23.321 85.324)">
              <g id="Grupo_971080" data-name="Grupo 971080">
                <g id="Grupo_971076" data-name="Grupo 971076" transform="translate(23.039)">
                  <path id="Trazado_661503" data-name="Trazado 661503" d="M240.812,105.9v11.017H234.6V105.988Z" transform="translate(-234.601 -105.904)" fill="#e8505b"/>
                </g>
                <g id="Grupo_971077" data-name="Grupo 971077" transform="translate(0 4.694)">
                  <path id="Trazado_661504" data-name="Trazado 661504" d="M241.884,108.811s1.313,1.093,1.093,4.446-3.571,6.269-3.571,6.269v2.843l10.57-11.881s1.02-1.678,2.551-1.167,4.958,2.625,2.553,6.926c0,0,2.769.728,2.7,4.446,0,0,4.3-1.385,4.3,3.571v2.99a2.289,2.289,0,0,1,2.916,0c1.385,1.24,1.095,4.813.657,6.489s-12.321,18.3-16.039,20.048a24.455,24.455,0,0,0-6.05,4.009l-8.166,9.842-15.064-14.119s9.159-9.137,9.742-10.885-1.166-7.217-1.02-9.332a114.557,114.557,0,0,1,1.6-11.883C231.168,119.746,241.884,108.811,241.884,108.811Z" transform="translate(-220.331 -108.811)" fill="#b78876"/>
                </g>
                <g id="Grupo_971079" data-name="Grupo 971079" transform="translate(0.119 4.132)">
                  <g id="Grupo_971078" data-name="Grupo 971078">
                    <path id="Trazado_661505" data-name="Trazado 661505" d="M235.35,167.856a4.5,4.5,0,0,0,.588-.613l1.626-1.87,6.122-7.217-.016.018a23.345,23.345,0,0,1,3.082-2.317c.576-.37,1.19-.72,1.829-1.058a14.6,14.6,0,0,0,2-1.117,50.946,50.946,0,0,0,6.886-7.461c2.268-2.859,4.613-5.984,6.912-9.427a15.4,15.4,0,0,0,1.608-2.822,13.051,13.051,0,0,0,.357-3.286,5.235,5.235,0,0,0-.988-3.35,2.42,2.42,0,0,0-1.753-.809,3.018,3.018,0,0,0-1.82.635l.646.307q0-1.16,0-2.357a8.11,8.11,0,0,0-.266-2.519,3.1,3.1,0,0,0-1.821-2.033,4.463,4.463,0,0,0-2.74-.042l.536.4a5.76,5.76,0,0,0-.622-2.846,4.215,4.215,0,0,0-2.38-2.01l.257.6a6.549,6.549,0,0,0,.878-2.88,4.236,4.236,0,0,0-1.078-2.94,6.1,6.1,0,0,0-2.63-1.719,2.259,2.259,0,0,0-1.763.187,3.578,3.578,0,0,0-1.23,1.172l.044-.06-.271.305-10.293,11.581.722.274q0-1.434,0-2.842l-.14.308a12.014,12.014,0,0,0,3.479-5.263,8.725,8.725,0,0,0,.184-3.124,4.908,4.908,0,0,0-1.2-2.939l-.25-.262-.279.289c-2.7,2.783-5.267,5.491-7.653,8.15a42.575,42.575,0,0,0-3.34,4.077,3.372,3.372,0,0,0-.457,1.295q-.111.625-.221,1.24-.177,1.228-.35,2.422-.317,2.388-.551,4.632-.111,1.124-.216,2.21a8.163,8.163,0,0,0,.034,2.193c.371,2.777,1.221,5.317,1.056,7.537a3.539,3.539,0,0,1-.756,1.384c-.323.441-.667.851-.993,1.253q-1.007,1.192-1.925,2.207l-3.145,3.421-1.979,2.12a5.853,5.853,0,0,0-.657.756,5.57,5.57,0,0,0,.749-.664l2.071-2.034c.893-.9,1.986-2.013,3.234-3.349q.942-1,1.976-2.181c.337-.4.691-.809,1.03-1.256a3.916,3.916,0,0,0,.865-1.574c.21-2.469-.631-4.945-.957-7.692a18.28,18.28,0,0,1,.226-4.262c.173-1.489.367-3.029.589-4.611q.182-1.182.367-2.4.111-.6.224-1.209a2.71,2.71,0,0,1,.375-1.066,42.974,42.974,0,0,1,3.294-3.96c2.388-2.63,4.966-5.325,7.669-8.089l-.53.026a4.352,4.352,0,0,1,.915,2.428,7.9,7.9,0,0,1-.17,2.819,11.264,11.264,0,0,1-3.244,4.86l-.14.131v.179q0,1.409,0,2.842l0,1.087.723-.812c3.332-3.741,6.78-7.613,10.3-11.571.094-.1.186-.21.271-.305l.019-.023.026-.039a1.878,1.878,0,0,1,2.028-.995,5.283,5.283,0,0,1,2.247,1.469,3.383,3.383,0,0,1,.873,2.369,5.746,5.746,0,0,1-.767,2.494l-.241.446.5.16a3.437,3.437,0,0,1,1.865,1.6,4.963,4.963,0,0,1,.528,2.435l-.015.552.551-.153a3.678,3.678,0,0,1,2.2.023,2.281,2.281,0,0,1,1.343,1.523,7.348,7.348,0,0,1,.234,2.267q0,1.2,0,2.357v.809l.646-.5a1.807,1.807,0,0,1,2.5.09,4.6,4.6,0,0,1,.794,2.837,12.325,12.325,0,0,1-.321,3.085,16.2,16.2,0,0,1-1.492,2.6c-2.259,3.424-4.581,6.563-6.812,9.424a51.635,51.635,0,0,1-6.709,7.422c-.305.208-.589.4-.915.58s-.675.334-1,.513c-.649.354-1.269.719-1.852,1.1a23.025,23.025,0,0,0-3.118,2.419l-.01.008-.006.011c-2.546,3.137-4.55,5.609-5.963,7.349-.644.815-1.154,1.458-1.537,1.942A4.742,4.742,0,0,0,235.35,167.856Z" transform="translate(-220.404 -108.463)" fill="#aa6550"/>
                  </g>
                </g>
              </g>
              <g id="Grupo_971082" data-name="Grupo 971082" transform="translate(27.233 11.667)">
                <g id="Grupo_971081" data-name="Grupo 971081">
                  <path id="Trazado_661506" data-name="Trazado 661506" d="M237.212,122.8c.181.145,2.06-1.9,4.195-4.569s3.72-4.952,3.539-5.1-2.059,1.9-4.195,4.571S237.032,122.659,237.212,122.8Z" transform="translate(-237.198 -113.129)" fill="#aa6550"/>
                </g>
              </g>
              <g id="Grupo_971084" data-name="Grupo 971084" transform="translate(32.873 16.422)">
                <g id="Grupo_971083" data-name="Grupo 971083">
                  <path id="Trazado_661507" data-name="Trazado 661507" d="M240.71,123.153c.16.157,1.608-1.117,2.83-3.129s1.707-3.875,1.5-3.946-1.029,1.582-2.212,3.507S240.532,122.992,240.71,123.153Z" transform="translate(-240.691 -116.075)" fill="#aa6550"/>
                </g>
              </g>
              <g id="Grupo_971086" data-name="Grupo 971086" transform="translate(39.608 22.997)">
                <g id="Grupo_971085" data-name="Grupo 971085">
                  <path id="Trazado_661508" data-name="Trazado 661508" d="M244.918,124.873c.205.108.93-.861,1.616-2.162s1.078-2.448.873-2.556-.928.861-1.616,2.164S244.713,124.765,244.918,124.873Z" transform="translate(-244.863 -120.147)" fill="#aa6550"/>
                </g>
              </g>
            </g>
          </g>
          <g id="Grupo_971089" data-name="Grupo 971089" transform="translate(115.651 183.347)">
            <rect id="Rectángulo_340642" data-name="Rectángulo 340642" width="28.935" height="6.282" transform="translate(28.935 6.282) rotate(180)" fill="#263238"/>
          </g>
          <g id="Grupo_971152" data-name="Grupo 971152" transform="translate(24.673 265.053)">
            <g id="Grupo_971090" data-name="Grupo 971090" transform="translate(6.486 12.13)">
              <path id="Trazado_661509" data-name="Trazado 661509" d="M314.034,224.735s-1.007,22.936-52.424,21.172-72.086-21.172-72.086-21.172V248.8s55.749,22.148,94.265,16.589c30.245-4.364,37.051-16.589,37.051-16.589Z" transform="translate(-189.523 -224.735)" fill="#455a64"/>
            </g>
            <g id="Grupo_971103" data-name="Grupo 971103" transform="translate(89.507 18.264)">
              <g id="Grupo_971094" data-name="Grupo 971094">
                <g id="Grupo_971091" data-name="Grupo 971091" transform="translate(0.406 0.42)">
                  <path id="Trazado_661510" data-name="Trazado 661510" d="M249.009,276.935h0a7.813,7.813,0,0,0,7.813-7.814V236.607a7.812,7.812,0,0,0-7.813-7.813h0a7.814,7.814,0,0,0-7.814,7.813v32.514A7.815,7.815,0,0,0,249.009,276.935Z" transform="translate(-241.195 -228.794)" fill="#455a64"/>
                </g>
                <g id="Grupo_971093" data-name="Grupo 971093">
                  <g id="Grupo_971092" data-name="Grupo 971092">
                    <path id="Trazado_661511" data-name="Trazado 661511" d="M249.164,277.095c0-.045-.4-.042-1.141-.179a7.921,7.921,0,0,1-3.009-1.214,7.661,7.661,0,0,1-3.031-4.014,8.842,8.842,0,0,1-.365-3.166q.015-1.749.031-3.681c.026-5.192.055-11.333.089-18.135.027-3.4-.018-7.036.061-10.669a7.4,7.4,0,0,1,14.729,0c.079,3.633.036,7.275.061,10.671.034,6.8.065,12.944.09,18.135q.017,1.932.031,3.683a8.863,8.863,0,0,1-.365,3.164,7.668,7.668,0,0,1-3.03,4.014,7.932,7.932,0,0,1-3.01,1.214c-.739.137-1.143.134-1.141.179a4.5,4.5,0,0,0,1.166-.011,7.565,7.565,0,0,0,3.163-1.108,7.922,7.922,0,0,0,3.3-4.138,9.29,9.29,0,0,0,.454-3.315q.015-1.749.029-3.683c.026-5.191.056-11.331.09-18.135-.008-3.431.06-6.957-.016-10.751a8.224,8.224,0,0,0-16.368,0c-.076,3.791-.01,7.317-.016,10.748.032,6.8.063,12.942.089,18.135q.017,1.93.031,3.681a9.25,9.25,0,0,0,.454,3.315,7.918,7.918,0,0,0,3.3,4.14A7.56,7.56,0,0,0,248,277.083,4.514,4.514,0,0,0,249.164,277.095Z" transform="translate(-240.943 -228.534)" fill="#263238"/>
                  </g>
                </g>
              </g>
              <g id="Grupo_971098" data-name="Grupo 971098" transform="translate(5.955 12.576)">
                <g id="Grupo_971095" data-name="Grupo 971095" transform="translate(0.367 0.082)">
                  <path id="Trazado_661512" data-name="Trazado 661512" d="M246.784,236.374a2.218,2.218,0,0,1,1.858,1.828,1.959,1.959,0,0,1-1.434,2.112,2.144,2.144,0,0,1-2.328-1.542,2.011,2.011,0,0,1,1.9-2.4" transform="translate(-244.859 -236.374)" fill="#455a64"/>
                </g>
                <g id="Grupo_971097" data-name="Grupo 971097">
                  <g id="Grupo_971096" data-name="Grupo 971096">
                    <path id="Trazado_661513" data-name="Trazado 661513" d="M246.923,236.405c0-.05-.182-.108-.51-.069a1.921,1.921,0,0,0-1.258.68,2.45,2.45,0,0,0-.45,2.131,2.58,2.58,0,0,0,2.125,1.636,2.164,2.164,0,0,0,2.207-1.526,2.187,2.187,0,0,0-.4-2.131c-.859-.957-1.749-.811-1.715-.72-.039.126.7.247,1.235,1.074a1.622,1.622,0,0,1,.152,1.51,1.432,1.432,0,0,1-1.392.957,1.928,1.928,0,0,1-1.477-1.043,1.974,1.974,0,0,1,.194-1.534C246.158,236.584,246.975,236.554,246.923,236.405Z" transform="translate(-244.631 -236.323)" fill="#263238"/>
                  </g>
                </g>
              </g>
              <g id="Grupo_971102" data-name="Grupo 971102" transform="translate(5.918 31.837)">
                <g id="Grupo_971099" data-name="Grupo 971099" transform="translate(0.367 0.081)">
                  <path id="Trazado_661514" data-name="Trazado 661514" d="M246.761,248.3a2.216,2.216,0,0,1,1.858,1.829,1.961,1.961,0,0,1-1.434,2.112,2.146,2.146,0,0,1-2.328-1.542,2.012,2.012,0,0,1,1.9-2.4" transform="translate(-244.836 -248.303)" fill="#455a64"/>
                </g>
                <g id="Grupo_971101" data-name="Grupo 971101">
                  <g id="Grupo_971100" data-name="Grupo 971100">
                    <path id="Trazado_661515" data-name="Trazado 661515" d="M246.9,248.334c0-.048-.182-.107-.51-.069a1.924,1.924,0,0,0-1.258.681,2.445,2.445,0,0,0-.45,2.13,2.58,2.58,0,0,0,2.125,1.636,2.164,2.164,0,0,0,2.209-1.524,2.19,2.19,0,0,0-.4-2.131c-.859-.958-1.749-.811-1.715-.722-.039.128.7.249,1.237,1.074a1.629,1.629,0,0,1,.15,1.511,1.432,1.432,0,0,1-1.392.957,1.93,1.93,0,0,1-1.477-1.045,1.982,1.982,0,0,1,.194-1.534C246.135,248.515,246.952,248.484,246.9,248.334Z" transform="translate(-244.608 -248.253)" fill="#263238"/>
                  </g>
                </g>
              </g>
            </g>
            <g id="Grupo_971116" data-name="Grupo 971116" transform="translate(109.833 16.701)">
              <g id="Grupo_971107" data-name="Grupo 971107">
                <g id="Grupo_971104" data-name="Grupo 971104" transform="translate(0.407 0.42)">
                  <path id="Trazado_661516" data-name="Trazado 661516" d="M261.6,275.967h0a7.814,7.814,0,0,0,7.813-7.813V235.639a7.814,7.814,0,0,0-7.813-7.813h0a7.814,7.814,0,0,0-7.814,7.813v32.515A7.814,7.814,0,0,0,261.6,275.967Z" transform="translate(-253.785 -227.826)" fill="#455a64"/>
                </g>
                <g id="Grupo_971106" data-name="Grupo 971106">
                  <g id="Grupo_971105" data-name="Grupo 971105">
                    <path id="Trazado_661517" data-name="Trazado 661517" d="M261.754,276.127c0-.045-.4-.042-1.141-.178a7.955,7.955,0,0,1-3.01-1.216,7.653,7.653,0,0,1-3.03-4.014,8.829,8.829,0,0,1-.365-3.165q.015-1.749.029-3.683c.026-5.191.057-11.331.09-18.135.027-3.394-.018-7.036.061-10.667a7.4,7.4,0,0,1,14.729,0c.079,3.631.034,7.274.061,10.669.034,6.8.065,12.945.091,18.136q.014,1.93.029,3.683a8.869,8.869,0,0,1-.363,3.164,7.652,7.652,0,0,1-3.032,4.012,7.95,7.95,0,0,1-3.008,1.216c-.74.136-1.143.132-1.141.178a4.418,4.418,0,0,0,1.166-.011,7.565,7.565,0,0,0,3.163-1.108,7.915,7.915,0,0,0,3.3-4.138,9.279,9.279,0,0,0,.454-3.313q.014-1.751.029-3.683c.026-5.191.056-11.333.09-18.136-.008-3.431.06-6.957-.016-10.75a8.224,8.224,0,0,0-16.368,0c-.077,3.793-.01,7.317-.018,10.748.034,6.8.065,12.944.09,18.135q.017,1.933.031,3.683a9.259,9.259,0,0,0,.454,3.315,7.927,7.927,0,0,0,3.3,4.138,7.572,7.572,0,0,0,3.163,1.108A4.434,4.434,0,0,0,261.754,276.127Z" transform="translate(-253.533 -227.566)" fill="#263238"/>
                  </g>
                </g>
              </g>
              <g id="Grupo_971111" data-name="Grupo 971111" transform="translate(5.955 14.139)">
                <g id="Grupo_971108" data-name="Grupo 971108" transform="translate(0.367 0.082)">
                  <path id="Trazado_661518" data-name="Trazado 661518" d="M259.374,236.374a2.218,2.218,0,0,1,1.858,1.828,1.959,1.959,0,0,1-1.434,2.112,2.147,2.147,0,0,1-2.33-1.542,2.013,2.013,0,0,1,1.905-2.4" transform="translate(-257.448 -236.374)" fill="#455a64"/>
                </g>
                <g id="Grupo_971110" data-name="Grupo 971110">
                  <g id="Grupo_971109" data-name="Grupo 971109">
                    <path id="Trazado_661519" data-name="Trazado 661519" d="M259.514,236.405c0-.05-.182-.108-.51-.069a1.91,1.91,0,0,0-1.258.68,2.446,2.446,0,0,0-.45,2.131,2.581,2.581,0,0,0,2.125,1.636,2.165,2.165,0,0,0,2.207-1.526,2.187,2.187,0,0,0-.4-2.131c-.859-.957-1.749-.811-1.715-.72-.04.126.7.247,1.235,1.074a1.626,1.626,0,0,1,.152,1.51,1.432,1.432,0,0,1-1.392.957,1.932,1.932,0,0,1-1.477-1.043,1.98,1.98,0,0,1,.192-1.534C258.748,236.584,259.565,236.554,259.514,236.405Z" transform="translate(-257.221 -236.323)" fill="#263238"/>
                  </g>
                </g>
              </g>
              <g id="Grupo_971115" data-name="Grupo 971115" transform="translate(0.229 23.009)">
                <g id="Grupo_971112" data-name="Grupo 971112" transform="translate(0.002 0.017)">
                  <path id="Trazado_661520" data-name="Trazado 661520" d="M269.809,241.828a16.452,16.452,0,0,1-16.133,1.234" transform="translate(-253.676 -241.828)" fill="#455a64"/>
                </g>
                <g id="Grupo_971114" data-name="Grupo 971114">
                  <g id="Grupo_971113" data-name="Grupo 971113">
                    <path id="Trazado_661521" data-name="Trazado 661521" d="M253.677,243.068a5.309,5.309,0,0,0,2.228,1.167,15.237,15.237,0,0,0,11.88-.907c1.379-.743,2.083-1.414,2.025-1.493-.123-.236-3.323,2.007-7.937,2.319C257.264,244.545,253.761,242.816,253.677,243.068Z" transform="translate(-253.675 -241.817)" fill="#263238"/>
                  </g>
                </g>
              </g>
            </g>
            <g id="Grupo_971129" data-name="Grupo 971129" transform="translate(0 0.906)">
              <g id="Grupo_971120" data-name="Grupo 971120">
                <g id="Grupo_971117" data-name="Grupo 971117" transform="translate(0.408 0.42)">
                  <path id="Trazado_661522" data-name="Trazado 661522" d="M193.571,266.184h0a7.815,7.815,0,0,0,7.814-7.814V225.856a7.813,7.813,0,0,0-7.814-7.813h0a7.813,7.813,0,0,0-7.813,7.813V258.37A7.814,7.814,0,0,0,193.571,266.184Z" transform="translate(-185.758 -218.043)" fill="#455a64"/>
                </g>
                <g id="Grupo_971119" data-name="Grupo 971119">
                  <g id="Grupo_971118" data-name="Grupo 971118">
                    <path id="Trazado_661523" data-name="Trazado 661523" d="M193.726,266.344c0-.045-.4-.042-1.142-.179a7.931,7.931,0,0,1-3.009-1.214,7.669,7.669,0,0,1-3.03-4.014,8.878,8.878,0,0,1-.363-3.166q.012-1.749.029-3.681c.026-5.192.056-11.332.09-18.135.027-3.4-.018-7.036.061-10.669a7.4,7.4,0,0,1,14.73,0c.079,3.633.034,7.275.061,10.671.034,6.8.065,12.944.09,18.136q.014,1.93.029,3.681a8.842,8.842,0,0,1-.365,3.166,7.663,7.663,0,0,1-3.031,4.012,7.921,7.921,0,0,1-3.01,1.214c-.739.137-1.143.134-1.141.179a4.529,4.529,0,0,0,1.167-.011,7.561,7.561,0,0,0,3.161-1.108,7.908,7.908,0,0,0,3.3-4.138,9.255,9.255,0,0,0,.454-3.315q.015-1.749.031-3.681c.026-5.192.057-11.332.09-18.136-.008-3.431.06-6.957-.016-10.751a8.225,8.225,0,0,0-16.37,0c-.076,3.791-.008,7.317-.016,10.748.034,6.8.065,12.942.09,18.135q.015,1.93.029,3.681a9.285,9.285,0,0,0,.454,3.315,7.919,7.919,0,0,0,3.3,4.14,7.559,7.559,0,0,0,3.163,1.108A4.514,4.514,0,0,0,193.726,266.344Z" transform="translate(-185.505 -217.783)" fill="#263238"/>
                  </g>
                </g>
              </g>
              <g id="Grupo_971124" data-name="Grupo 971124" transform="translate(5.955 12.576)">
                <g id="Grupo_971121" data-name="Grupo 971121" transform="translate(0.367 0.082)">
                  <path id="Trazado_661524" data-name="Trazado 661524" d="M191.346,225.623a2.217,2.217,0,0,1,1.86,1.828,1.96,1.96,0,0,1-1.434,2.112,2.145,2.145,0,0,1-2.33-1.542,2.012,2.012,0,0,1,1.9-2.4" transform="translate(-189.421 -225.623)" fill="#455a64"/>
                </g>
                <g id="Grupo_971123" data-name="Grupo 971123">
                  <g id="Grupo_971122" data-name="Grupo 971122">
                    <path id="Trazado_661525" data-name="Trazado 661525" d="M191.485,225.654c0-.05-.181-.108-.51-.069a1.907,1.907,0,0,0-1.256.68,2.445,2.445,0,0,0-.45,2.131,2.578,2.578,0,0,0,2.123,1.636,2.233,2.233,0,0,0,1.808-3.657c-.859-.956-1.747-.811-1.715-.72-.039.126.7.247,1.237,1.074a1.626,1.626,0,0,1,.152,1.51,1.429,1.429,0,0,1-1.392.957A1.928,1.928,0,0,1,190,228.152a1.988,1.988,0,0,1,.194-1.534C190.721,225.833,191.537,225.8,191.485,225.654Z" transform="translate(-189.194 -225.572)" fill="#263238"/>
                  </g>
                </g>
              </g>
              <g id="Grupo_971128" data-name="Grupo 971128" transform="translate(5.918 31.837)">
                <g id="Grupo_971125" data-name="Grupo 971125" transform="translate(0.367 0.081)">
                  <path id="Trazado_661526" data-name="Trazado 661526" d="M191.322,237.552a2.218,2.218,0,0,1,1.86,1.829,1.961,1.961,0,0,1-1.434,2.112,2.148,2.148,0,0,1-2.33-1.542,2.014,2.014,0,0,1,1.9-2.4" transform="translate(-189.398 -237.552)" fill="#455a64"/>
                </g>
                <g id="Grupo_971127" data-name="Grupo 971127">
                  <g id="Grupo_971126" data-name="Grupo 971126">
                    <path id="Trazado_661527" data-name="Trazado 661527" d="M191.462,237.583c0-.048-.181-.107-.51-.069a1.918,1.918,0,0,0-1.256.681,2.441,2.441,0,0,0-.451,2.13,2.578,2.578,0,0,0,2.123,1.636,2.164,2.164,0,0,0,2.209-1.524,2.187,2.187,0,0,0-.4-2.131c-.857-.957-1.747-.81-1.715-.722-.039.128.7.249,1.237,1.074a1.63,1.63,0,0,1,.152,1.511,1.433,1.433,0,0,1-1.392.957,1.93,1.93,0,0,1-1.479-1.045,1.989,1.989,0,0,1,.194-1.534C190.7,237.764,191.515,237.733,191.462,237.583Z" transform="translate(-189.171 -237.502)" fill="#263238"/>
                  </g>
                </g>
              </g>
            </g>
            <g id="Grupo_971142" data-name="Grupo 971142" transform="translate(21.092 8.417)">
              <g id="Grupo_971133" data-name="Grupo 971133">
                <g id="Grupo_971130" data-name="Grupo 971130" transform="translate(0.408 0.42)">
                  <path id="Trazado_661528" data-name="Trazado 661528" d="M206.636,270.836h0a7.814,7.814,0,0,0,7.813-7.813V230.509a7.814,7.814,0,0,0-7.813-7.814h0a7.815,7.815,0,0,0-7.814,7.814v32.514A7.814,7.814,0,0,0,206.636,270.836Z" transform="translate(-198.822 -222.695)" fill="#455a64"/>
                </g>
                <g id="Grupo_971132" data-name="Grupo 971132">
                  <g id="Grupo_971131" data-name="Grupo 971131">
                    <path id="Trazado_661529" data-name="Trazado 661529" d="M206.792,271c0-.045-.4-.042-1.141-.178a7.955,7.955,0,0,1-3.009-1.216,7.653,7.653,0,0,1-3.031-4.014,8.828,8.828,0,0,1-.365-3.164q.014-1.749.029-3.683c.026-5.191.056-11.331.09-18.135.027-3.394-.018-7.036.061-10.667a7.4,7.4,0,0,1,14.73,0c.079,3.631.034,7.274.061,10.669.034,6.8.065,12.945.09,18.136.01,1.287.021,2.517.029,3.683a8.829,8.829,0,0,1-.365,3.165,7.642,7.642,0,0,1-3.031,4.012,7.924,7.924,0,0,1-3.008,1.216c-.739.136-1.143.132-1.142.178a4.447,4.447,0,0,0,1.166-.01,7.6,7.6,0,0,0,3.163-1.109,7.923,7.923,0,0,0,3.3-4.138,9.318,9.318,0,0,0,.454-3.313c.01-1.166.019-2.4.029-3.683.026-5.191.056-11.333.09-18.136-.008-3.431.06-6.957-.016-10.75a8.225,8.225,0,0,0-16.37,0c-.076,3.793-.008,7.319-.016,10.748.034,6.8.065,12.944.09,18.135q.017,1.933.031,3.683a9.26,9.26,0,0,0,.454,3.315,7.912,7.912,0,0,0,3.3,4.138,7.574,7.574,0,0,0,3.163,1.108A4.43,4.43,0,0,0,206.792,271Z" transform="translate(-198.57 -222.435)" fill="#263238"/>
                  </g>
                </g>
              </g>
              <g id="Grupo_971137" data-name="Grupo 971137" transform="translate(5.955 14.139)">
                <g id="Grupo_971134" data-name="Grupo 971134" transform="translate(0.367 0.082)">
                  <path id="Trazado_661530" data-name="Trazado 661530" d="M204.41,231.243a2.217,2.217,0,0,1,1.86,1.828,1.959,1.959,0,0,1-1.434,2.112,2.147,2.147,0,0,1-2.33-1.542,2.013,2.013,0,0,1,1.9-2.4" transform="translate(-202.485 -231.243)" fill="#455a64"/>
                </g>
                <g id="Grupo_971136" data-name="Grupo 971136">
                  <g id="Grupo_971135" data-name="Grupo 971135">
                    <path id="Trazado_661531" data-name="Trazado 661531" d="M204.549,231.274c0-.05-.181-.108-.51-.069a1.917,1.917,0,0,0-1.256.68,2.445,2.445,0,0,0-.45,2.131,2.578,2.578,0,0,0,2.125,1.636,2.164,2.164,0,0,0,2.207-1.526,2.187,2.187,0,0,0-.4-2.131c-.859-.956-1.749-.811-1.716-.72-.039.126.7.247,1.237,1.074a1.626,1.626,0,0,1,.152,1.51,1.428,1.428,0,0,1-1.392.957,1.923,1.923,0,0,1-1.477-1.043,1.981,1.981,0,0,1,.192-1.534C203.785,231.453,204.6,231.424,204.549,231.274Z" transform="translate(-202.258 -231.192)" fill="#263238"/>
                  </g>
                </g>
              </g>
              <g id="Grupo_971141" data-name="Grupo 971141" transform="translate(0.23 23.009)">
                <g id="Grupo_971138" data-name="Grupo 971138" transform="translate(0.002 0.019)">
                  <path id="Trazado_661532" data-name="Trazado 661532" d="M214.846,236.7a16.456,16.456,0,0,1-16.133,1.232" transform="translate(-198.713 -236.698)" fill="#455a64"/>
                </g>
                <g id="Grupo_971140" data-name="Grupo 971140">
                  <g id="Grupo_971139" data-name="Grupo 971139">
                    <path id="Trazado_661533" data-name="Trazado 661533" d="M198.714,237.937a5.31,5.31,0,0,0,2.226,1.167,15.241,15.241,0,0,0,11.881-.907c1.377-.743,2.083-1.414,2.025-1.493-.123-.236-3.323,2.007-7.937,2.318C202.3,239.414,198.8,237.685,198.714,237.937Z" transform="translate(-198.712 -236.686)" fill="#263238"/>
                  </g>
                </g>
              </g>
            </g>
            <g id="Grupo_971146" data-name="Grupo 971146" transform="translate(128.003)">
              <g id="Grupo_971143" data-name="Grupo 971143" transform="translate(0.416 0.421)">
                <path id="Trazado_661534" data-name="Trazado 661534" d="M274.187,292.75h0a8.106,8.106,0,0,0,7.977-8.229l-.915-59.06a8.1,8.1,0,0,0-8.228-7.977h0a8.1,8.1,0,0,0-7.977,8.228l.914,59.062A8.1,8.1,0,0,0,274.187,292.75Z" transform="translate(-265.044 -217.482)" fill="#455a64"/>
              </g>
              <g id="Grupo_971145" data-name="Grupo 971145">
                <g id="Grupo_971144" data-name="Grupo 971144">
                  <path id="Trazado_661535" data-name="Trazado 661535" d="M274.347,292.91c0-.053-.6-.014-1.692-.241a8.088,8.088,0,0,1-5.917-5.323,12.585,12.585,0,0,1-.412-4.127c-.029-3.048-.061-6.5-.1-10.32-.094-7.668-.2-16.767-.326-26.863-.069-5.057-.144-10.364-.221-15.863q-.029-2.063-.06-4.161a7.89,7.89,0,0,1,.9-3.872,7.685,7.685,0,0,1,13.456-.213,7.877,7.877,0,0,1,1.02,3.843q.034,2.1.068,4.162c.094,5.5.184,10.806.271,15.865.19,10.1.362,19.2.505,26.863.082,3.814.157,7.27.223,10.317a12.527,12.527,0,0,1-.284,4.136,8.083,8.083,0,0,1-5.751,5.5c-1.085.258-1.686.24-1.681.292a5.972,5.972,0,0,0,1.72-.127,8.114,8.114,0,0,0,4.279-2.433,8.357,8.357,0,0,0,1.816-3.118,12.8,12.8,0,0,0,.371-4.261c-.029-3.048-.061-6.505-.1-10.32-.092-7.667-.2-16.767-.324-26.866-.071-5.057-.145-10.364-.221-15.865q-.031-2.063-.061-4.162a8.728,8.728,0,0,0-1.125-4.246,8.519,8.519,0,0,0-14.92.236,8.723,8.723,0,0,0-.991,4.279q.034,2.1.068,4.161c.094,5.5.184,10.8.27,15.861.191,10.1.362,19.194.507,26.861.082,3.814.157,7.27.221,10.319a12.826,12.826,0,0,0,.5,4.246,8.35,8.35,0,0,0,1.913,3.061,8.106,8.106,0,0,0,4.351,2.3A5.941,5.941,0,0,0,274.347,292.91Z" transform="translate(-264.787 -217.222)" fill="#263238"/>
                </g>
              </g>
            </g>
            <g id="Grupo_971147" data-name="Grupo 971147" transform="translate(56.793 28.317)">
              <path id="Trazado_661536" data-name="Trazado 661536" d="M240.149,235.756l-15.182-.99a2.693,2.693,0,0,0-2.861,2.512l-1.419,21.8a2.691,2.691,0,0,0,2.511,2.861l15.182.988a2.69,2.69,0,0,0,2.861-2.511l1.421-21.8A2.692,2.692,0,0,0,240.149,235.756Zm-16.342,20.558,1-15.329a2.692,2.692,0,0,1,2.861-2.512l9.687.631a2.692,2.692,0,0,1,2.511,2.861l-1,15.33A2.692,2.692,0,0,1,236,259.806l-9.686-.63A2.694,2.694,0,0,1,223.807,256.314Z" transform="translate(-220.681 -234.761)" fill="#263238"/>
            </g>
            <g id="Grupo_971149" data-name="Grupo 971149" transform="translate(53.066 37.669)">
              <g id="Grupo_971148" data-name="Grupo 971148">
                <path id="Trazado_661537" data-name="Trazado 661537" d="M218.375,242.516c.094.245,3.244-1.355,7.422-1.108,4.183.174,7.156,2.083,7.274,1.847.057-.081-.6-.676-1.871-1.317a13.928,13.928,0,0,0-10.829-.544C219.04,241.9,218.328,242.429,218.375,242.516Z" transform="translate(-218.373 -240.553)" fill="#263238"/>
              </g>
            </g>
            <g id="Grupo_971151" data-name="Grupo 971151" transform="translate(52.633 43.35)">
              <g id="Grupo_971150" data-name="Grupo 971150">
                <path id="Trazado_661538" data-name="Trazado 661538" d="M218.107,246.039c.1.242,3.139-1.437,7.212-1.1,4.082.258,6.846,2.364,6.976,2.138.061-.076-.526-.714-1.731-1.419a12.47,12.47,0,0,0-10.538-.773C218.733,245.409,218.057,245.955,218.107,246.039Z" transform="translate(-218.104 -244.071)" fill="#263238"/>
              </g>
            </g>
          </g>
        </g>
      </g>
    </g>
  </g>
</svg>
