<svg xmlns="http://www.w3.org/2000/svg" xmlns:xlink="http://www.w3.org/1999/xlink" width="465.921" height="444.789" viewBox="0 0 465.921 444.789">
  <defs>
    <clipPath id="clip-path">
      <rect id="Rectángulo_340575" data-name="Rectángulo 340575" width="465.921" height="137.286" fill="none"/>
    </clipPath>
    <clipPath id="clip-path-2">
      <rect id="Rectángulo_340554" data-name="Rectángulo 340554" width="247.433" height="368.441" fill="none"/>
    </clipPath>
    <clipPath id="clip-path-4">
      <rect id="Rectángulo_340548" data-name="Rectángulo 340548" width="91.157" height="61.679" transform="translate(29.891 120.05)" fill="none"/>
    </clipPath>
    <clipPath id="clip-path-5">
      <rect id="Rectángulo_340549" data-name="Rectángulo 340549" width="3.824" height="17.562" transform="translate(30.831 111.269)" fill="none"/>
    </clipPath>
    <clipPath id="clip-path-6">
      <rect id="Rectángulo_340586" data-name="Rectángulo 340586" width="87.652" height="57.971" transform="translate(0 0)" fill="none"/>
    </clipPath>
    <clipPath id="clip-path-7">
      <rect id="Rectángulo_340590" data-name="Rectángulo 340590" width="37.811" height="49.827" fill="none"/>
    </clipPath>
    <clipPath id="clip-path-8">
      <rect id="Rectángulo_340589" data-name="Rectángulo 340589" width="37.811" height="49.827" transform="translate(0 0)" fill="none"/>
    </clipPath>
    <clipPath id="clip-path-9">
      <rect id="Rectángulo_340587" data-name="Rectángulo 340587" width="7.167" height="23.566" transform="translate(1.73 6.585)" fill="none"/>
    </clipPath>
    <clipPath id="clip-path-10">
      <rect id="Rectángulo_340588" data-name="Rectángulo 340588" width="4.472" height="2.862" transform="translate(10.699 3.111)" fill="none"/>
    </clipPath>
    <clipPath id="clip-path-11">
      <rect id="Rectángulo_340591" data-name="Rectángulo 340591" width="80.03" height="81.03" transform="translate(0 0.001)" fill="none"/>
    </clipPath>
    <clipPath id="clip-path-12">
      <rect id="Rectángulo_340559" data-name="Rectángulo 340559" width="130.001" height="388.892" fill="none"/>
    </clipPath>
    <clipPath id="clip-path-14">
      <rect id="Rectángulo_340555" data-name="Rectángulo 340555" width="21.051" height="21.991" transform="translate(95.619 97.771)" fill="none"/>
    </clipPath>
    <clipPath id="clip-path-15">
      <rect id="Rectángulo_340556" data-name="Rectángulo 340556" width="7.112" height="19.319" transform="translate(45.425 93.487)" fill="none"/>
    </clipPath>
    <clipPath id="clip-path-16">
      <rect id="Rectángulo_340557" data-name="Rectángulo 340557" width="17.877" height="26.466" transform="translate(77.132 131.219)" fill="none"/>
    </clipPath>
    <clipPath id="clip-path-17">
      <rect id="Rectángulo_340592" data-name="Rectángulo 340592" width="66.837" height="72.694" transform="translate(0 0)" fill="none"/>
    </clipPath>
  </defs>
  <g id="Grupo_970553" data-name="Grupo 970553" transform="translate(-933.5 -4597.652)">
    <g id="Grupo_970536" data-name="Grupo 970536" transform="translate(933.5 4887)">
      <rect id="Rectángulo_340560" data-name="Rectángulo 340560" width="17.226" height="39.703" transform="translate(28.54 97.583)" fill="#ebebeb"/>
      <rect id="Rectángulo_340561" data-name="Rectángulo 340561" width="17.226" height="39.703" transform="translate(86.995 97.583)" fill="#ebebeb"/>
      <rect id="Rectángulo_340562" data-name="Rectángulo 340562" width="17.226" height="75.841" transform="translate(57.767 61.445)" fill="#f5f5f5"/>
      <rect id="Rectángulo_340563" data-name="Rectángulo 340563" width="17.226" height="75.841" transform="translate(116.222 61.445)" fill="#f5f5f5"/>
      <rect id="Rectángulo_340564" data-name="Rectángulo 340564" width="17.226" height="73.669" transform="translate(145.45 63.617)" fill="#ebebeb"/>
      <rect id="Rectángulo_340565" data-name="Rectángulo 340565" width="17.226" height="73.669" transform="translate(203.905 63.617)" fill="#ebebeb"/>
      <rect id="Rectángulo_340566" data-name="Rectángulo 340566" width="17.226" height="73.669" transform="translate(262.36 63.617)" fill="#ebebeb"/>
      <rect id="Rectángulo_340567" data-name="Rectángulo 340567" width="17.226" height="112.331" transform="translate(174.677 24.955)" fill="#f5f5f5"/>
      <rect id="Rectángulo_340568" data-name="Rectángulo 340568" width="17.226" height="101.339" transform="translate(233.132 35.947)" fill="#f5f5f5"/>
      <rect id="Rectángulo_340569" data-name="Rectángulo 340569" width="17.225" height="73.669" transform="translate(348.702 63.617)" fill="#ebebeb"/>
      <rect id="Rectángulo_340570" data-name="Rectángulo 340570" width="17.225" height="59.531" transform="translate(319.475 77.755)" fill="#f5f5f5"/>
      <rect id="Rectángulo_340571" data-name="Rectángulo 340571" width="17.226" height="112.986" transform="translate(409.833 24.3)" fill="#ebebeb"/>
      <rect id="Rectángulo_340572" data-name="Rectángulo 340572" width="17.226" height="59.531" transform="translate(380.605 77.755)" fill="#f5f5f5"/>
      <rect id="Rectángulo_340573" data-name="Rectángulo 340573" width="17.226" height="59.531" transform="translate(439.094 77.755)" fill="#f5f5f5"/>
      <rect id="Rectángulo_340574" data-name="Rectángulo 340574" width="17.226" height="85.814" transform="translate(291.587 51.472)" fill="#ebebeb"/>
      <g id="Grupo_970535" data-name="Grupo 970535">
        <g id="Grupo_970534" data-name="Grupo 970534" clip-path="url(#clip-path)">
          <path id="Trazado_661359" data-name="Trazado 661359" d="M186.3,24.955a4.43,4.43,0,1,1-4.43-4.43,4.43,4.43,0,0,1,4.43,4.43" fill="#e0e0e0"/>
          <path id="Trazado_661360" data-name="Trazado 661360" d="M181.873,33a8.047,8.047,0,1,1,8.047-8.047A8.057,8.057,0,0,1,181.873,33m0-15.446a7.4,7.4,0,1,0,7.4,7.4,7.407,7.407,0,0,0-7.4-7.4" fill="#e0e0e0"/>
          <path id="Trazado_661361" data-name="Trazado 661361" d="M185.408,13.658l-.228-8.722,2.178.035L183.29,0l-4.067,5.017,2.255.014.224,8.605Z" fill="#ebebeb"/>
          <path id="Trazado_661362" data-name="Trazado 661362" d="M42.057,79.441a4.43,4.43,0,1,1-4.43-4.43,4.43,4.43,0,0,1,4.43,4.43" fill="#e0e0e0"/>
          <path id="Trazado_661363" data-name="Trazado 661363" d="M37.627,87.656a8.048,8.048,0,1,1,8.048-8.047,8.056,8.056,0,0,1-8.048,8.047m0-15.446a7.4,7.4,0,1,0,7.4,7.4,7.407,7.407,0,0,0-7.4-7.4" fill="#e0e0e0"/>
          <path id="Trazado_661364" data-name="Trazado 661364" d="M34.951,51.967l.237,9.069L32.923,61l4.23,5.169,4.23-5.217-2.345-.014L38.8,51.99Z" fill="#ebebeb"/>
          <path id="Trazado_661365" data-name="Trazado 661365" d="M269.409,33l.237,9.069-2.265-.036,4.23,5.169,4.23-5.217-2.345-.014-.234-8.948Z" fill="#ebebeb"/>
          <path id="Trazado_661366" data-name="Trazado 661366" d="M322.769,113.351,270.881,64.678c-32.873-15.872-83.632-39.266-89.551-38.936C174.7,26.133,48.869,75.755.943,94.842L0,92.475C7.051,89.666,172.783,23.692,181.181,23.2c.057,0,.118,0,.182,0,9.208,0,82.428,35.231,90.8,39.275l.316.218,50.705,47.563c9.62-5.077,64.763-34.171,65.7-34.587.326-.144,1.2-.5,77.031-.494v2.549c-29.087-.021-72.809.065-76.132.344-2.878,1.459-44.26,23.281-66.215,34.867Z" fill="#e0e0e0"/>
          <path id="Trazado_661367" data-name="Trazado 661367" d="M276.041,62.528a4.43,4.43,0,1,1-4.43-4.43,4.429,4.429,0,0,1,4.43,4.43" fill="#e0e0e0"/>
          <path id="Trazado_661368" data-name="Trazado 661368" d="M271.611,70.742a8.047,8.047,0,1,1,8.047-8.047,8.057,8.057,0,0,1-8.047,8.047m0-15.446a7.4,7.4,0,1,0,7.4,7.4,7.408,7.408,0,0,0-7.4-7.4" fill="#e0e0e0"/>
          <path id="Trazado_661369" data-name="Trazado 661369" d="M393.834,75.741a4.43,4.43,0,1,1-4.43-4.43,4.43,4.43,0,0,1,4.43,4.43" fill="#e0e0e0"/>
          <path id="Trazado_661370" data-name="Trazado 661370" d="M389.4,83.955a8.048,8.048,0,1,1,8.048-8.047,8.056,8.056,0,0,1-8.048,8.047m0-15.447a7.4,7.4,0,1,0,7.4,7.4,7.408,7.408,0,0,0-7.4-7.4" fill="#e0e0e0"/>
          <path id="Trazado_661371" data-name="Trazado 661371" d="M387.017,49.414l.237,9.069-2.265-.036,4.23,5.169,4.23-5.217-2.345-.014-.234-8.948Z" fill="#ebebeb"/>
        </g>
      </g>
    </g>
    <g id="Grupo_970520" data-name="Grupo 970520" transform="translate(949.5 4674)">
      <g id="Grupo_970519" data-name="Grupo 970519" clip-path="url(#clip-path-2)">
        <g id="Grupo_970518" data-name="Grupo 970518">
          <g id="Grupo_970517" data-name="Grupo 970517" clip-path="url(#clip-path-2)">
            <path id="Trazado_661215" data-name="Trazado 661215" d="M46.705,316.519,23.52,337.725l26.236,28.981c2.615-2.676-5.4-22.7-5.4-22.7L58.84,330Z" fill="#455a64"/>
            <path id="Trazado_661216" data-name="Trazado 661216" d="M37.5,333.908a1.6,1.6,0,0,0-2.091.4,1.535,1.535,0,0,0,.382,2.077,1.684,1.684,0,0,0,2.213-.44,1.592,1.592,0,0,0-.638-2.116" fill="#fff"/>
            <path id="Trazado_661217" data-name="Trazado 661217" d="M23.52,337.726l2.421-2.24,24.166,28.83s.6,1.8-.45,2.473Z" fill="#263238"/>
            <path id="Trazado_661218" data-name="Trazado 661218" d="M44.929,344.342c-.146.124-.851-.526-1.936-.81-1.078-.313-2.016-.117-2.078-.3-.09-.155.947-.71,2.255-.343s1.917,1.364,1.759,1.451" fill="#fff"/>
            <path id="Trazado_661219" data-name="Trazado 661219" d="M46.423,348.519c-.108.157-.9-.238-1.937-.177-1.035.031-1.792.495-1.914.349-.142-.113.532-.953,1.818-1.005s2.165.708,2.033.833" fill="#fff"/>
            <path id="Trazado_661220" data-name="Trazado 661220" d="M44.348,353.539c-.18-.124.239-.895,1.486-1.277,1.1-.346,2.012.045,1.948.211-.044.186-.849.132-1.751.424-.908.27-1.542.77-1.683.642" fill="#fff"/>
            <path id="Trazado_661221" data-name="Trazado 661221" d="M48.113,340.995c-.183.057-.575-.768-1.354-1.519-.763-.767-1.595-1.146-1.54-1.33.028-.174,1.1-.041,2.006.856s1.062,1.962.888,1.993" fill="#fff"/>
            <path id="Trazado_661222" data-name="Trazado 661222" d="M50.927,337.191c-.057.055-.651-.426-1.307-1.458a8.848,8.848,0,0,1-.908-1.941,9.153,9.153,0,0,1-.312-1.234,2.388,2.388,0,0,1-.055-.747.831.831,0,0,1,.694-.746,1.043,1.043,0,0,1,.884.327,2.538,2.538,0,0,1,.418.612,6.926,6.926,0,0,1,.841,3.316,3.274,3.274,0,0,1-.406,1.921c-.1-.022.042-.751-.064-1.9a7.813,7.813,0,0,0-.442-1.955,7.324,7.324,0,0,0-.5-1.065c-.2-.381-.431-.644-.639-.6-.078.019-.1.034-.134.179a1.944,1.944,0,0,0,.043.548,10.1,10.1,0,0,0,.256,1.164,10.845,10.845,0,0,0,.732,1.89,13.48,13.48,0,0,1,.9,1.688" fill="#fff"/>
            <path id="Trazado_661223" data-name="Trazado 661223" d="M50.557,337.191c-.067-.03.186-.77,1.055-1.652a6.322,6.322,0,0,1,2.984-1.668,1.615,1.615,0,0,1,1.571.262.914.914,0,0,1,.145.973,2.675,2.675,0,0,1-.4.63,4.335,4.335,0,0,1-.977.886,4.5,4.5,0,0,1-2.06.738,2.528,2.528,0,0,1-1.93-.379,16.2,16.2,0,0,0,1.862-.086,4.5,4.5,0,0,0,1.779-.776,4,4,0,0,0,.815-.786c.267-.324.411-.664.275-.751a1.12,1.12,0,0,0-.935-.077,6.427,6.427,0,0,0-1.112.352,7.038,7.038,0,0,0-1.7,1.03c-.887.731-1.28,1.362-1.371,1.3" fill="#fff"/>
            <path id="Trazado_661224" data-name="Trazado 661224" d="M41.107,336.956l.294,31.419,39.092-.166c-.245-3.733-20.5-11.145-20.5-11.145l.637-20.138Z" fill="#455a64"/>
            <path id="Trazado_661225" data-name="Trazado 661225" d="M47.9,355.422a1.6,1.6,0,0,0-1.1,1.827,1.535,1.535,0,0,0,1.8,1.1,1.684,1.684,0,0,0,1.15-1.941,1.591,1.591,0,0,0-2-.938" fill="#fff"/>
            <path id="Trazado_661226" data-name="Trazado 661226" d="M41.4,368.441l-.047-3.364,37.6,1.275s1.739.761,1.539,1.986Z" fill="#263238"/>
            <path id="Trazado_661227" data-name="Trazado 661227" d="M60.625,356.863c-.006.191-.96.282-1.9.9-.953.594-1.434,1.423-1.61,1.348-.176-.037.1-1.179,1.251-1.907s2.3-.515,2.255-.34" fill="#fff"/>
            <path id="Trazado_661228" data-name="Trazado 661228" d="M64.733,358.541c.045.185-.781.513-1.426,1.323-.668.791-.828,1.665-1.018,1.657-.18.031-.317-1.086.5-2.078s1.935-1.084,1.94-.9" fill="#fff"/>
            <path id="Trazado_661229" data-name="Trazado 661229" d="M67.082,363.439c-.173.042-.443-.911.043-1.959s1.377-1.467,1.458-1.308c.108.156-.469.72-.854,1.586-.406.856-.458,1.661-.647,1.681" fill="#fff"/>
            <path id="Trazado_661230" data-name="Trazado 661230" d="M60.261,352.257c-.079.174-.956-.085-2.035-.008-1.08.056-1.918.422-2.018.259-.111-.138.706-.847,1.977-.922s2.169.521,2.076.671" fill="#fff"/>
            <path id="Trazado_661231" data-name="Trazado 661231" d="M43.073,157.731S37.6,163.6,34.9,169.218s-6.827,17.6-6.827,17.6-5.15,18.289-4,26.91,8.854,67.58,8.854,67.58-1.515,46.741,5.076,67.537l1.217,5.516,22.038-3.913,4.882-115.7,13.447-76.5Z" fill="#263238"/>
            <path id="Trazado_661232" data-name="Trazado 661232" d="M71.219,162.661c-.093.033-.062-.72-.848-1.269a1.628,1.628,0,0,0-1.51-.153,1.566,1.566,0,0,0,.05,2.925,1.63,1.63,0,0,0,1.5-.206c.766-.575.71-1.326.8-1.3.031,0,.086.16.052.465a1.8,1.8,0,0,1-.623,1.128,1.972,1.972,0,0,1-1.9.374,2.036,2.036,0,0,1-.067-3.848,1.98,1.98,0,0,1,1.909.308,1.8,1.8,0,0,1,.661,1.107c.045.3,0,.467-.036.466" fill="#455a64"/>
            <path id="Trazado_661233" data-name="Trazado 661233" d="M96.8,173.635s8.083,73.35,9.245,85.945-44.559,79.773-44.559,79.773L42.194,316.56l29.433-54.715-9.912-54.5,13.05-49.172,20.289.242Z" fill="#263238"/>
            <path id="Trazado_661234" data-name="Trazado 661234" d="M34.633,331.181a15.25,15.25,0,0,0,.157,1.6c.135,1.051.394,2.6.759,4.593.733,3.992,1.922,9.781,3.518,17.013l.033.15.153-.026L61.3,350.651l.167-.029.007-.17c.612-15.126,1.345-33.2,2.13-52.592.814-20.861,1.568-40.2,2.187-56.073l0,.018c1.653-12.748,3.019-23.29,3.975-30.667.461-3.664.823-6.542,1.073-8.525q.172-1.449.267-2.24c.057-.507.071-.77.071-.77s-.056.258-.134.762c-.075.525-.185,1.269-.325,2.232-.276,1.98-.676,4.852-1.185,8.51-1,7.372-2.424,17.906-4.148,30.645l0,.009v.009c-.644,15.869-1.428,35.21-2.275,56.07-.757,19.389-1.463,37.469-2.054,52.6l.174-.2L39.2,354.2l.186.123c-1.638-7.219-2.875-13-3.661-16.975-.392-1.989-.678-3.528-.842-4.573-.091-.522-.141-.92-.177-1.188s-.069-.4-.069-.4" fill="#455a64"/>
            <path id="Trazado_661235" data-name="Trazado 661235" d="M68.01,187.561a7.692,7.692,0,0,1,1.206.06,5.532,5.532,0,0,0,3.1-.53,2.873,2.873,0,0,0,1.247-1.668,11.662,11.662,0,0,0,.379-2.525c.157-1.83.313-3.842.453-5.957.283-4.23.438-8.065.534-10.842.047-1.3.087-2.4.119-3.29a5.4,5.4,0,0,1,.1-1.207,5.473,5.473,0,0,1,.1,1.208c.028.778.048,1.9.046,3.3,0,2.783-.1,6.63-.382,10.87-.141,2.119-.312,4.135-.5,5.967a11.508,11.508,0,0,1-.447,2.617,3.237,3.237,0,0,1-1.469,1.849,4.131,4.131,0,0,1-1.872.489,8.026,8.026,0,0,1-1.435-.076,4.192,4.192,0,0,1-1.187-.261" fill="#455a64"/>
            <path id="Trazado_661236" data-name="Trazado 661236" d="M95.914,173.689a7.744,7.744,0,0,1-2.106-1.115A21.849,21.849,0,0,1,86.28,164a7.733,7.733,0,0,1-.833-2.232,39.247,39.247,0,0,0,4.419,6.678,39.264,39.264,0,0,0,6.048,5.245" fill="#455a64"/>
            <path id="Trazado_661237" data-name="Trazado 661237" d="M26.526,91.621l8.783,31.9,3.883,16.97c0,14.622-3.883,21.284-3.883,21.284L95.1,158.789s.981-40.459,0-48.112l-7.282-26.49L68.854,79.533l-23.67.453Z" fill="#bcd9f7"/>
            <path id="Trazado_661238" data-name="Trazado 661238" d="M108.665,136.47a3.8,3.8,0,0,1-.224-1.575,10.824,10.824,0,0,1,2.619-7.1,3.8,3.8,0,0,1,1.193-1.052,18.8,18.8,0,0,0-2.7,4.527,18.8,18.8,0,0,0-.885,5.2" fill="#263238"/>
            <path id="Trazado_661239" data-name="Trazado 661239" d="M126.864,115.475l-15.532,9.277-8.809-22.571A105.121,105.121,0,0,0,97.434,92.5c-5.159-9.053-11.708-8.578-11.708-8.578l-7.9,11.732,8.387,17.968s5.1,33.327,15,35.912c15.106,3.946,25.65-34.062,25.65-34.062" fill="#bcd9f7"/>
            <g id="Grupo_970513" data-name="Grupo 970513" opacity="0.3">
              <g id="Grupo_970512" data-name="Grupo 970512">
                <g id="Grupo_970511" data-name="Grupo 970511" clip-path="url(#clip-path-4)">
                  <path id="Trazado_661240" data-name="Trazado 661240" d="M29.891,181.73c7.036-.279,14.347-3.271,20.4-6.867s11.542-8.054,17.251-12.176c13.676-9.874,40.821-31.516,53.5-42.636l-3.676.828L32,176.133Z"/>
                </g>
              </g>
            </g>
            <path id="Trazado_661241" data-name="Trazado 661241" d="M95.283,149.825a2.5,2.5,0,0,1-.047-.589c-.01-.443-.021-1-.035-1.69-.007-1.537-.017-3.642-.029-6.212.026-5.308.061-12.522.1-20.494.01-2,.075-3.953-.051-5.822a34.084,34.084,0,0,0-.735-5.345,27.812,27.812,0,0,0-3.673-8.326c-1.337-2.253-2.4-4.1-3.036-5.428-.318-.663-.543-1.188-.683-1.55a2.572,2.572,0,0,1-.183-.562,2.494,2.494,0,0,1,.28.52c.169.347.423.855.767,1.5.685,1.293,1.791,3.1,3.171,5.331a27.42,27.42,0,0,1,3.825,8.407,33.906,33.906,0,0,1,.776,5.421c.135,1.9.072,3.862.063,5.859-.1,7.97-.187,15.184-.253,20.492-.056,2.57-.1,4.674-.136,6.211-.026.687-.047,1.246-.063,1.689a2.55,2.55,0,0,1-.058.588" fill="#263238"/>
            <path id="Trazado_661242" data-name="Trazado 661242" d="M89.5,56.716a3.994,3.994,0,0,1-3.753-1.676,4.763,4.763,0,0,0,2.883-.159c.873-.445,1.367-1.73.683-2.432C88.784,51.9,87.9,52,87.142,51.94a4.708,4.708,0,0,1-4-3.072c-.645-1.854-.055-3.876.177-5.826A16.045,16.045,0,0,0,76.6,28.232L64.386,21.173c-4.429,5.669-5.81,13.308-4.891,20.443s3.945,13.841,7.583,20.047a23.831,23.831,0,0,0,3.684,5.07,9.439,9.439,0,0,0,5.489,2.816,5.664,5.664,0,0,0-.9-5.111,12.319,12.319,0,0,0,9.081-3.253l-2.617-2.007A9.559,9.559,0,0,0,89.5,56.716" fill="#263238"/>
            <path id="Trazado_661243" data-name="Trazado 661243" d="M42.474,36.8a11.443,11.443,0,0,1,8.3-10.778l15.31-4.375c6.644-.91,11.328,7.162,11.956,13.838.7,7.418,1.219,15.252.509,20.825-1.428,11.205-9.931,12.887-9.931,12.887,0-.016.144,5.081.232,8.338l-.145,24.877-22.593-24.4L42.438,36.935c-.009-.191.025.118.036-.137" fill="#ae7461"/>
            <path id="Trazado_661244" data-name="Trazado 661244" d="M76.107,44a1.431,1.431,0,0,1-1.335,1.486,1.369,1.369,0,0,1-1.513-1.245,1.43,1.43,0,0,1,1.333-1.485A1.369,1.369,0,0,1,76.107,44" fill="#263238"/>
            <path id="Trazado_661245" data-name="Trazado 661245" d="M76.494,39.9c-.171.192-1.28-.576-2.818-.525-1.538.029-2.643.856-2.816.672-.085-.081.086-.423.566-.8a3.935,3.935,0,0,1,2.247-.769,3.773,3.773,0,0,1,2.251.651c.484.348.655.681.57.767" fill="#263238"/>
            <path id="Trazado_661246" data-name="Trazado 661246" d="M62.631,44.022a1.431,1.431,0,0,1-1.336,1.485,1.369,1.369,0,0,1-1.513-1.244,1.432,1.432,0,0,1,1.333-1.486,1.37,1.37,0,0,1,1.516,1.245" fill="#263238"/>
            <path id="Trazado_661247" data-name="Trazado 661247" d="M61.879,40.317c-.172.192-1.281-.576-2.819-.525-1.538.029-2.643.856-2.816.672-.084-.08.084-.422.567-.8a3.932,3.932,0,0,1,2.247-.769,3.772,3.772,0,0,1,2.25.651c.483.348.655.681.571.767" fill="#263238"/>
            <path id="Trazado_661248" data-name="Trazado 661248" d="M67.035,52.267a10.212,10.212,0,0,1,2.486-.528c.391-.053.761-.142.819-.412a2.005,2.005,0,0,0-.3-1.157q-.6-1.408-1.254-2.956c-1.745-4.211-3.021-7.678-2.851-7.747s1.723,3.288,3.467,7.5q.631,1.559,1.206,2.976a2.27,2.27,0,0,1,.251,1.536.986.986,0,0,1-.628.6,2.719,2.719,0,0,1-.665.113,10.011,10.011,0,0,1-2.533.081" fill="#263238"/>
            <path id="Trazado_661249" data-name="Trazado 661249" d="M53.718,65.649s3.848,7.556,14.976,6.169l-.071-2.623a28.1,28.1,0,0,1-14.905-3.546" fill="#6f4439"/>
            <path id="Trazado_661250" data-name="Trazado 661250" d="M61.237,35.353c-.139.423-1.681.272-3.48.545-1.805.237-3.244.81-3.495.442-.113-.176.129-.577.7-1a6.122,6.122,0,0,1,5.314-.753c.671.247,1.015.565.956.766" fill="#263238"/>
            <path id="Trazado_661251" data-name="Trazado 661251" d="M75.858,35.207c-.26.358-1.331.028-2.607.05-1.276-.023-2.347.307-2.606-.051-.115-.174.045-.529.506-.875a3.774,3.774,0,0,1,4.2,0c.461.345.62.7.506.875" fill="#263238"/>
            <path id="Trazado_661252" data-name="Trazado 661252" d="M61.263,55.272a2.006,2.006,0,0,1,2.03-1.584,2.1,2.1,0,0,1,1.647,1.1,2.576,2.576,0,0,1,.15,2.006l-.028.145a2.288,2.288,0,0,1-2.559.621,2.136,2.136,0,0,1-1.24-2.29" fill="#6f4439"/>
            <path id="Trazado_661253" data-name="Trazado 661253" d="M66.178,56.941c-.005-.234-1.559-.115-2.766-1.358s-1.167-2.912-1.385-2.907c-.1-.014-.273.393-.237,1.093A3.878,3.878,0,0,0,62.858,56.2a3.379,3.379,0,0,0,2.312,1.04c.654.008,1.026-.195,1.008-.3" fill="#263238"/>
            <path id="Trazado_661254" data-name="Trazado 661254" d="M47.621,19.033a15.531,15.531,0,0,1,8.977-6.15c3.63-.634,5.818-.012,8.206,2.168a9.037,9.037,0,0,0,3.6,2.131c1.741.339,3.2.052,5.275,1.114,2.837,1.452,4.081,5.246,5.4,8.149,1.634,3.608,3.962,6.928,5.027,10.743s.5,8.5-2.716,10.815c.615-3.256,1.121-6.878-.667-9.667-1.364-2.127-3.793-3.305-5.542-5.129-2.11-2.2-2.386-5.143-4.6-7.242-5.046-4.793-13.935,3.639-22.958-6.932" fill="#263238"/>
            <path id="Trazado_661255" data-name="Trazado 661255" d="M79.685,34.281a32.583,32.583,0,0,0-4.976-9.012,17.523,17.523,0,0,0-23.3-2.986l-.879.074A14.783,14.783,0,0,0,62.027,27.9c2.622-.012,5.467-.685,7.716.663,2.162,1.3,2.981,4.018,4.76,5.8,1.211,1.215,2.836,1.962,4.012,3.212A13.138,13.138,0,0,1,81,42.386c.783-2.681-.248-5.523-1.312-8.105" fill="#263238"/>
            <path id="Trazado_661256" data-name="Trazado 661256" d="M56.223,24.463l-7.149-6.287c-5.572-.29-9.148,4.976-11.061,9.041-1.422,3.022-1.864,6.4-2.935,9.566-1.1,3.249-2.857,6.251-3.858,9.531s-1.138,7.092.836,9.9L33.3,53.917a13.848,13.848,0,0,0,3.749,8.558q.24-1.194.479-2.389a13.45,13.45,0,0,0,5.379,5.795l3.349,8.951c4.946-15.065-7.788-16.207,9.963-50.369" fill="#263238"/>
            <path id="Trazado_661257" data-name="Trazado 661257" d="M55.2,25.774a32.436,32.436,0,0,1-1.679,5.983,11.5,11.5,0,0,1-3.679,4.924c-2.446,1.774-5.595,2.139-8.533,2.845s-6.066,2.063-7.276,4.831a69.315,69.315,0,0,1,2.506-11.993c1.31-4.314,3.2-8.711,6.795-11.432A12.453,12.453,0,0,1,55.071,19.18" fill="#263238"/>
            <path id="Trazado_661258" data-name="Trazado 661258" d="M47.6,45.474c-.149-.374-7.087-2.656-6.969,4.645.114,7.093,7.228,5.493,7.237,5.289s-.268-9.934-.268-9.934" fill="#ae7461"/>
            <path id="Trazado_661259" data-name="Trazado 661259" d="M45.625,52.764c-.033-.022-.123.089-.33.189a1.233,1.233,0,0,1-.923.036A3.057,3.057,0,0,1,42.9,50.274a4.088,4.088,0,0,1,.312-1.776,1.427,1.427,0,0,1,.911-.966.628.628,0,0,1,.735.325c.1.2.057.338.1.35.02.017.15-.122.087-.413a.774.774,0,0,0-.288-.439.924.924,0,0,0-.686-.168,1.738,1.738,0,0,0-1.27,1.124,4.208,4.208,0,0,0-.39,1.985c.073,1.429.83,2.752,1.861,3.029a1.322,1.322,0,0,0,1.126-.21c.216-.179.251-.339.227-.351" fill="#6f4439"/>
            <path id="Trazado_661260" data-name="Trazado 661260" d="M44.854,54.04a1.4,1.4,0,1,0,.334.1" fill="#fff"/>
            <path id="Trazado_661261" data-name="Trazado 661261" d="M45.188,54.136a1.911,1.911,0,0,1,.665.934,1.2,1.2,0,0,1-.246,1.121,1.24,1.24,0,0,1-2.2-.632,1.2,1.2,0,0,1,.388-1.08,1.911,1.911,0,0,1,1.059-.439c0-.017-.111-.07-.335-.068a1.445,1.445,0,0,0-.875.334,1.419,1.419,0,0,0-.532,1.3,1.524,1.524,0,0,0,2.724.783A1.418,1.418,0,0,0,46.072,55a1.451,1.451,0,0,0-.564-.749c-.189-.12-.314-.136-.32-.119" fill="#263238"/>
            <path id="Trazado_661262" data-name="Trazado 661262" d="M55.659,26.241a20.771,20.771,0,0,0-2.772-4.579A20.719,20.719,0,0,0,48.724,18.3a3.954,3.954,0,0,1,1.5.6,11.506,11.506,0,0,1,5.047,5.782,3.945,3.945,0,0,1,.392,1.563" fill="#455a64"/>
            <path id="Trazado_661263" data-name="Trazado 661263" d="M233.982,48.437a5.661,5.661,0,0,1,.211.863c.106.572.323,1.406.472,2.5a58.96,58.96,0,0,1,.743,9.338,63.764,63.764,0,0,1-1.433,13.82,58.222,58.222,0,0,1-2.248,7.906,51.665,51.665,0,0,1-8.567,15.37,61.8,61.8,0,0,1-5.642,5.986,57.037,57.037,0,0,1-11.329,8.044,45.129,45.129,0,0,1-8.658,3.579c-1.052.348-1.9.493-2.467.635a5.783,5.783,0,0,1-.873.168,5.735,5.735,0,0,1,.847-.27c.554-.174,1.394-.351,2.433-.727a48.3,48.3,0,0,0,8.541-3.709,58.222,58.222,0,0,0,11.181-8.073,62.909,62.909,0,0,0,5.571-5.954,51.909,51.909,0,0,0,8.483-15.222,58.412,58.412,0,0,0,2.258-7.835,66.9,66.9,0,0,0,.96-23.027c-.117-1.1-.3-1.935-.376-2.513a5.491,5.491,0,0,1-.107-.882" fill="#263238"/>
            <path id="Trazado_661264" data-name="Trazado 661264" d="M239.205,37.806A63.646,63.646,0,0,0,126.049,42.23a63.9,63.9,0,0,0,2.248,58.164,63.252,63.252,0,0,0,38.37,30.045,63.971,63.971,0,0,0,17.181,2.364,63.732,63.732,0,0,0,55.357-95m-39.981-24.26a57.286,57.286,0,0,1,34.75,27.212,57.864,57.864,0,0,1,2.035,52.679,57.657,57.657,0,1,1-80.6-74.56,57.348,57.348,0,0,1,28.253-7.471,57.972,57.972,0,0,1,15.561,2.14" fill="#263238"/>
            <path id="Trazado_661265" data-name="Trazado 661265" d="M134.834,89.17a2.035,2.035,0,0,1-.255-.469c-.171-.371-.382-.83-.64-1.388a20.564,20.564,0,0,1-.906-2.244c-.309-.891-.717-1.891-1.006-3.045q-.241-.863-.5-1.8c-.169-.627-.28-1.295-.43-1.978-.324-1.363-.5-2.85-.715-4.408a55.527,55.527,0,0,1-.131-10.225,55.5,55.5,0,0,1,1.912-10.048c.486-1.5.916-2.93,1.473-4.217.267-.646.492-1.284.769-1.872l.808-1.683c.486-1.086,1.062-2,1.522-2.823a20.5,20.5,0,0,1,1.283-2.051l.872-1.256a2,2,0,0,1,.333-.416,2.064,2.064,0,0,1-.246.476c-.21.349-.471.78-.788,1.305a23.959,23.959,0,0,0-1.2,2.086c-.433.832-.982,1.75-1.443,2.839l-.772,1.684c-.265.587-.479,1.224-.735,1.868-.535,1.282-.945,2.708-1.414,4.195a57.611,57.611,0,0,0-1.854,9.959,57.669,57.669,0,0,0,.089,10.127c.2,1.545.358,3.021.661,4.376.14.679.24,1.343.4,1.968s.317,1.219.466,1.792c.265,1.153.645,2.153.927,3.048a23.676,23.676,0,0,0,.819,2.264c.22.572.4,1.042.548,1.422a2.108,2.108,0,0,1,.159.512" fill="#263238"/>
            <path id="Trazado_661266" data-name="Trazado 661266" d="M143.563,100.055c-.063.123-1.082-.3-2.068-1.218s-1.5-1.892-1.38-1.965.794.721,1.733,1.582,1.789,1.471,1.715,1.6" fill="#263238"/>
            <path id="Trazado_661267" data-name="Trazado 661267" d="M126,37.311a62.764,62.764,0,1,1,87.735,81.16A62.755,62.755,0,0,1,126,37.311m109.96,51.207a58.521,58.521,0,1,0-24.291,26.291,58.536,58.536,0,0,0,24.291-26.291" fill="#455a64"/>
            <path id="Trazado_661268" data-name="Trazado 661268" d="M182.977,127.6a64.091,64.091,0,0,1-17.208-2.367A63.353,63.353,0,0,1,127.34,95.144a64,64,0,0,1-2.253-58.254,63.764,63.764,0,1,1,89.134,82.452,63.433,63.433,0,0,1-31.244,8.261M182.785,2a61.823,61.823,0,0,0-53.7,92.16,61.773,61.773,0,1,0,107.6-60.719,61.368,61.368,0,0,0-37.224-29.15A62.091,62.091,0,0,0,182.785,2m.187,121.4a59.822,59.822,0,0,1-16.075-2.211A59.568,59.568,0,0,1,153.6,11.923a59.57,59.57,0,0,1,81.154,22.6,59.77,59.77,0,0,1,2.1,54.413,59.6,59.6,0,0,1-53.89,34.459M182.791,6.206A57.592,57.592,0,0,0,132.744,92.1a57.541,57.541,0,0,0,102.3-4,57.765,57.765,0,0,0-2.03-52.589A57.19,57.19,0,0,0,198.326,8.343a57.865,57.865,0,0,0-15.535-2.137" fill="#455a64"/>
            <path id="Trazado_661269" data-name="Trazado 661269" d="M7.652,181.915l-1.129-1.79c-2.418-3.832.326-9.906,3-11.593L127.959,93.783c.6-.376,1.517.011,2.057.866l7.933,12.57a1.631,1.631,0,0,1-.1,2.23L20.093,183.766c-2.673,1.687-10.023,1.981-12.441-1.851" fill="#455a64"/>
            <path id="Trazado_661270" data-name="Trazado 661270" d="M118,122.456l3.592-3.8s-.422-8.664,1.057-10.777l.771-1.277s-.769-4.213,1.5-5.187c.641-1.592,1.466-2.24,2.592-1.354,0,0-.634-3.17,2.324-3.592s3.8,12.995,3.8,12.995,1.48,6.022-1.9,6.022c0,0-1.9,2.113-4.015,2.324,0,0-.634,3.593-3.592,3.381Z" fill="#ae7461"/>
            <path id="Trazado_661271" data-name="Trazado 661271" d="M127.271,116.246c.019-.016.177.109.338.429a2.427,2.427,0,0,1,.17,1.486,3.338,3.338,0,0,1-1.11,1.925,6.882,6.882,0,0,1-2.359,1.29,16.839,16.839,0,0,1-4.707.934,5.83,5.83,0,0,1-1.984-.1,30.594,30.594,0,0,0,6.535-1.271,6.96,6.96,0,0,0,2.23-1.174,3.138,3.138,0,0,0,1.07-1.667,3,3,0,0,0-.183-1.847" fill="#6f4439"/>
            <path id="Trazado_661272" data-name="Trazado 661272" d="M129.9,111.478c-.144,0-.151-2.7-.8-5.933-.629-3.242-1.645-5.739-1.512-5.793a5.59,5.59,0,0,1,.784,1.592,24.667,24.667,0,0,1,1.648,8.364,5.6,5.6,0,0,1-.121,1.77" fill="#6f4439"/>
            <path id="Trazado_661273" data-name="Trazado 661273" d="M127.348,112.954c-.139.01-.394-2.623-1.071-5.8s-1.493-5.693-1.362-5.74a20.826,20.826,0,0,1,1.822,5.644,20.831,20.831,0,0,1,.611,5.9" fill="#6f4439"/>
            <path id="Trazado_661274" data-name="Trazado 661274" d="M132.072,112.85c.107-.068.55.762.261,1.809s-1.079,1.544-1.138,1.431c-.089-.1.456-.664.685-1.553.251-.883.064-1.643.192-1.687" fill="#6f4439"/>
            <path id="Trazado_661275" data-name="Trazado 661275" d="M123.808,113.452a18.119,18.119,0,0,1-.271-3.291,18.175,18.175,0,0,1-.136-3.3,8.821,8.821,0,0,1,.6,3.271,8.834,8.834,0,0,1-.2,3.32" fill="#6f4439"/>
            <path id="Trazado_661276" data-name="Trazado 661276" d="M44.816,144.7a10.867,10.867,0,0,1,3.474-3.179c2.358-1.393,7.072-1.941,7.961-3.527s2.34.038,1.557,2.073c-.5,1.3-3.908,4.308-3.908,4.308s3.1,1.409,5.485.56,10.364-1.7,10.978-.492c.695,1.364-1.359,1.4-2.3,1.726-.714.248-6.2,1.819-6.2,1.819s10.068,1.495,11.24,2.2c1.275.769-.35,1.722-.985,1.631-.4-.057-2.4,1.16-3.817,2.068a4.62,4.62,0,0,1-3.255.661l-2.332-.393,6.928,2.038s1.016,1.34-.79,1.611c-.805.121-22.783-.724-24.461-.932-2.9-.359-7.577-.49-7.577-.49l3.6-13.114Z" fill="#ae7461"/>
            <path id="Trazado_661277" data-name="Trazado 661277" d="M72.278,151.979a15.6,15.6,0,0,1-5.022.57,15.574,15.574,0,0,1-5.016-.619c.021-.137,2.254.142,5.018.149s5-.237,5.02-.1" fill="#6f4439"/>
            <path id="Trazado_661278" data-name="Trazado 661278" d="M27.446,138.012l10.066-20.751L28.619,90.316A18.077,18.077,0,0,0,21.93,96.13c-3.172,4.3-6.6,13.442-6.6,13.442s-10.972,25.1-12.776,28.847-4.717,10.683,0,14.568S38.845,157,38.845,157l3.348-13.958Z" fill="#bcd9f7"/>
            <path id="Trazado_661279" data-name="Trazado 661279" d="M28.631,104.409c.137-.044,2.488,6.972,5.251,15.667s4.892,15.784,4.755,15.827-2.488-6.97-5.251-15.669-4.892-15.782-4.755-15.825" fill="#263238"/>
            <path id="Trazado_661280" data-name="Trazado 661280" d="M42.193,143.043a5.361,5.361,0,0,1-1.171-.256l-3.135-.879c-2.643-.754-6.281-1.848-10.331-2.906s-7.777-1.845-10.5-1.759a13.537,13.537,0,0,0-4.3.849,4.028,4.028,0,0,1,1.064-.56,10.168,10.168,0,0,1,3.218-.657c2.8-.182,6.585.573,10.647,1.623s7.69,2.213,10.307,3.057c1.31.422,2.362.783,3.088,1.038a5.289,5.289,0,0,1,1.111.45" fill="#263238"/>
            <g id="Grupo_970516" data-name="Grupo 970516" opacity="0.3">
              <g id="Grupo_970515" data-name="Grupo 970515">
                <g id="Grupo_970514" data-name="Grupo 970514" clip-path="url(#clip-path-5)">
                  <path id="Trazado_661281" data-name="Trazado 661281" d="M30.918,111.269a103.937,103.937,0,0,0,.9,17.562l2.833-5.679c-.462-2.908-2.566-8.749-3.582-11.512"/>
                </g>
              </g>
            </g>
            <rect id="Rectángulo_340550" data-name="Rectángulo 340550" width="13.071" height="47.108" transform="translate(194.191 43.13)" fill="#ff725e"/>
            <rect id="Rectángulo_340551" data-name="Rectángulo 340551" width="13.071" height="21.386" transform="translate(153.24 70.852)" fill="#ff725e"/>
            <rect id="Rectángulo_340552" data-name="Rectángulo 340552" width="13.071" height="33.014" transform="translate(173.439 59.224)" fill="#ff725e"/>
            <path id="Trazado_661282" data-name="Trazado 661282" d="M202.429,27.564a2.321,2.321,0,0,1-.314.416l-.97,1.145c-.9,1.029-2.142,2.456-3.689,4.228L184.638,47.8l-.143.161-.181-.119-8.021-5.239.341-.049-.306.361-16.962,19.9-.112.131-.137-.1-6.378-4.736L151.021,56.8a4.2,4.2,0,0,1-.579-.485,3.948,3.948,0,0,1,.64.4l1.776,1.23,6.476,4.6-.249.029,16.846-20,.306-.361.149-.176.192.127,8.01,5.255-.324.043,12.957-14.327c1.591-1.731,2.873-3.126,3.8-4.131l1.031-1.09a2.36,2.36,0,0,1,.379-.357" fill="#263238"/>
            <path id="Trazado_661283" data-name="Trazado 661283" d="M202.844,37.509a17.477,17.477,0,0,1-.182-3.006c-.047-1.86-.077-4.434-.078-7.29l.3.257-.26.043c-2.877.475-5.487.876-7.38,1.141a18.254,18.254,0,0,1-3.082.321,18.468,18.468,0,0,1,3.022-.685c1.878-.358,4.478-.816,7.356-1.291l.259-.043.3-.05v.307c0,2.856-.031,5.43-.078,7.29a17.475,17.475,0,0,1-.182,3.006" fill="#263238"/>
          </g>
        </g>
      </g>
    </g>
    <g id="Grupo_970538" data-name="Grupo 970538" transform="translate(1126 4819.01)">
      <g id="Grupo_970537" data-name="Grupo 970537" clip-path="url(#clip-path-6)">
        <path id="Trazado_661372" data-name="Trazado 661372" d="M82.156,57.758H5.542A5.307,5.307,0,0,1,.235,52.451V5.541A5.307,5.307,0,0,1,5.542.234H82.156a5.307,5.307,0,0,1,5.307,5.307v46.91a5.307,5.307,0,0,1-5.307,5.307" fill="#fff"/>
        <path id="Trazado_661373" data-name="Trazado 661373" d="M82.156,57.758c0-.016.247-.01.718-.078a5.082,5.082,0,0,0,1.969-.714,5.277,5.277,0,0,0,2.169-2.56c.554-1.256.317-2.873.359-4.639-.017-7.107-.043-17.368-.074-30.044q-.007-4.758-.015-9.956,0-1.3,0-2.622a16.111,16.111,0,0,0-.106-2.629,5.141,5.141,0,0,0-3.346-3.8A7.462,7.462,0,0,0,81.1.432l-2.867,0L72.365.441,60.111.451,5.548.469a5.078,5.078,0,0,0-4.964,4A8.07,8.07,0,0,0,.469,6.206V7.989q0,1.78,0,3.548,0,7.071,0,13.922c0,9.127-.01,17.931-.014,26.318a5.775,5.775,0,0,0,.536,2.942,5.079,5.079,0,0,0,1.994,2.132,5.2,5.2,0,0,0,2.807.7l3,0,11.56.011,20.748.029,30.043.075,8.168.044,2.124.023c.479.008.724.024.724.024s-.245.016-.724.024l-2.124.023-8.168.044L41.1,57.924l-20.748.029-11.56.011-3,0a5.628,5.628,0,0,1-3.021-.751A5.5,5.5,0,0,1,.6,54.91a6.218,6.218,0,0,1-.585-3.133C.014,43.39.01,34.586,0,25.459q0-6.846,0-13.922V6.206a8.407,8.407,0,0,1,.125-1.83A5.542,5.542,0,0,1,5.548,0L60.111.018l12.254.01,5.871.006,2.867,0a7.822,7.822,0,0,1,2.851.309A5.522,5.522,0,0,1,87.54,4.441a16,16,0,0,1,.107,2.7q0,1.324,0,2.622-.009,5.193-.015,9.956C87.6,32.4,87.572,42.66,87.554,49.767q-.006,1.331-.011,2.511a5.572,5.572,0,0,1-.4,2.18,5.361,5.361,0,0,1-2.249,2.59,4.963,4.963,0,0,1-2.012.679,4.068,4.068,0,0,1-.724.031" fill="#263238"/>
        <rect id="Rectángulo_340576" data-name="Rectángulo 340576" width="3.347" height="13.32" transform="translate(39.329 33.637)" fill="#ff725e"/>
        <rect id="Rectángulo_340577" data-name="Rectángulo 340577" width="3.347" height="15.25" transform="translate(11.372 31.707)" fill="#ff725e"/>
        <rect id="Rectángulo_340578" data-name="Rectángulo 340578" width="3.347" height="18.429" transform="translate(18.361 28.528)" fill="#ff725e"/>
        <rect id="Rectángulo_340579" data-name="Rectángulo 340579" width="3.347" height="17.418" transform="translate(25.351 29.539)" fill="#ff725e"/>
        <rect id="Rectángulo_340580" data-name="Rectángulo 340580" width="3.347" height="23.311" transform="translate(32.34 23.646)" fill="#ff725e"/>
        <rect id="Rectángulo_340581" data-name="Rectángulo 340581" width="3.347" height="23.197" transform="translate(46.318 23.76)" fill="#ff725e"/>
        <rect id="Rectángulo_340582" data-name="Rectángulo 340582" width="3.347" height="15.578" transform="translate(53.308 31.379)" fill="#ff725e"/>
        <rect id="Rectángulo_340583" data-name="Rectángulo 340583" width="3.347" height="22.175" transform="translate(60.297 24.782)" fill="#ff725e"/>
        <rect id="Rectángulo_340584" data-name="Rectángulo 340584" width="3.347" height="27.17" transform="translate(67.286 19.786)" fill="#ff725e"/>
        <rect id="Rectángulo_340585" data-name="Rectángulo 340585" width="3.347" height="22.289" transform="translate(74.276 24.668)" fill="#ff725e"/>
        <path id="Trazado_661374" data-name="Trazado 661374" d="M36.191,11.535c0,.144-5.942.26-13.271.26s-13.272-.116-13.272-.26,5.941-.26,13.272-.26,13.271.116,13.271.26" fill="#263238"/>
      </g>
    </g>
    <g id="Grupo_970548" data-name="Grupo 970548" transform="translate(942 4649.087)">
      <g id="Grupo_970547" data-name="Grupo 970547" clip-path="url(#clip-path-7)">
        <g id="Grupo_970546" data-name="Grupo 970546">
          <g id="Grupo_970545" data-name="Grupo 970545" clip-path="url(#clip-path-8)">
            <path id="Trazado_661375" data-name="Trazado 661375" d="M36.229,11.343A18.9,18.9,0,1,0,18.369,37.8l1.908,4.37,15.182-6.628s-.979-2.493-1.9-4.7a18.9,18.9,0,0,0,2.671-19.5" fill="#fd0"/>
            <path id="Trazado_661376" data-name="Trazado 661376" d="M29.937,37.868s-.03-.074-.076-.221-.116-.375-.2-.656c-.173-.578-.429-1.43-.729-2.536s-.65-2.465-.955-4.066a27.968,27.968,0,0,1-.533-5.507,17.957,17.957,0,0,1,.293-3.214,3.481,3.481,0,0,1,.719-1.581,1.95,1.95,0,0,1,1.669-.664,1.286,1.286,0,0,1,.847.446,1.32,1.32,0,0,1,.316.92,2.683,2.683,0,0,1-.835,1.738,5.168,5.168,0,0,1-3.712,1.317,5.238,5.238,0,0,1-3.708-1.822,3.97,3.97,0,0,1-.975-1.954A1.7,1.7,0,0,1,23.1,18.177a1.221,1.221,0,0,1,1.148.226,1.713,1.713,0,0,1,.606,1.007,3.7,3.7,0,0,1-.467,2.254A5.639,5.639,0,0,1,20.866,24.6a4.913,4.913,0,0,1-4.44-1.035,2.858,2.858,0,0,1-1.033-2.047,1.45,1.45,0,0,1,.425-1.1,1.417,1.417,0,0,1,1.11-.367,1.886,1.886,0,0,1,1.063.441,2.951,2.951,0,0,1,.7.882,5.438,5.438,0,0,1,.6,2.095,5.628,5.628,0,0,1-1.174,3.971A5.728,5.728,0,0,1,14.749,29.5a3,3,0,0,1-1.92-.146A1.464,1.464,0,0,1,12,27.725a1.231,1.231,0,0,1,.612-.72,1.789,1.789,0,0,1,.9-.2,2.742,2.742,0,0,1,1.579.726c.846.749,1.594,1.51,2.328,2.227,2.91,2.887,5.149,5.334,6.677,7.04.764.854,1.347,1.526,1.74,1.982l.444.524c.1.119.145.184.145.184s-.058-.055-.163-.168L25.8,38.81,24.03,36.858c-1.548-1.687-3.8-4.116-6.725-6.984-.734-.709-1.5-1.476-2.327-2.206a2.563,2.563,0,0,0-1.472-.677,1.132,1.132,0,0,0-.588,2.183,2.8,2.8,0,0,0,1.792.123,5.529,5.529,0,0,0,3.241-1.99,5.414,5.414,0,0,0,1.12-3.819,5.242,5.242,0,0,0-.578-2.007,2.054,2.054,0,0,0-1.583-1.2,1.187,1.187,0,0,0-.934.306,1.212,1.212,0,0,0-.353.929,2.629,2.629,0,0,0,.957,1.878,4.686,4.686,0,0,0,4.228.982,5.407,5.407,0,0,0,3.378-2.814,3.479,3.479,0,0,0,.448-2.1,1.483,1.483,0,0,0-.522-.873.99.99,0,0,0-.938-.189,1.321,1.321,0,0,0-.739.654,1.63,1.63,0,0,0-.156.991,3.75,3.75,0,0,0,.92,1.838,5.023,5.023,0,0,0,3.55,1.753,4.968,4.968,0,0,0,3.558-1.248,2.494,2.494,0,0,0,.78-1.6,1.115,1.115,0,0,0-.989-1.171,1.764,1.764,0,0,0-1.5.6,3.306,3.306,0,0,0-.684,1.5,17.831,17.831,0,0,0-.3,3.177,28.2,28.2,0,0,0,.5,5.482c.292,1.6.629,2.958.915,4.066s.527,1.954.687,2.546c.077.284.136.5.179.662s.054.228.054.228" fill="#263238"/>
            <path id="Trazado_661377" data-name="Trazado 661377" d="M35.517,38.864,22.481,44.555a1.067,1.067,0,1,1-.854-1.956l13.036-5.692a1.068,1.068,0,0,1,.854,1.957" fill="#263238"/>
            <path id="Trazado_661378" data-name="Trazado 661378" d="M35.89,39.718,22.854,45.409a1.068,1.068,0,0,0,.855,1.957l1.43-.625,3.476,2.785a1.374,1.374,0,0,0,1.407.186l4.658-2.034a1.37,1.37,0,0,0,.819-1.172l.273-4.407.972-.425a1.067,1.067,0,1,0-.854-1.956" fill="#263238"/>
            <g id="Grupo_970541" data-name="Grupo 970541" opacity="0.658">
              <g id="Grupo_970540" data-name="Grupo 970540">
                <g id="Grupo_970539" data-name="Grupo 970539" clip-path="url(#clip-path-9)">
                  <path id="Trazado_661379" data-name="Trazado 661379" d="M2.959,12.728a13.883,13.883,0,0,1,2.462-3.82A10.027,10.027,0,0,1,7.752,6.966c.626-.354,1.027-.454,1.119-.33.212.282-.9,1.321-2.151,3.276a16.407,16.407,0,0,0-2.666,8.354,16.4,16.4,0,0,0,2.281,8.47c1.162,2.009,2.223,3.1,2,3.37-.1.12-.494,0-1.1-.38a10.059,10.059,0,0,1-2.24-2.046,13.891,13.891,0,0,1-2.285-3.93,14.725,14.725,0,0,1-.974-5.537" fill="#fff"/>
                </g>
              </g>
            </g>
            <g id="Grupo_970544" data-name="Grupo 970544" opacity="0.2">
              <g id="Grupo_970543" data-name="Grupo 970543">
                <g id="Grupo_970542" data-name="Grupo 970542" clip-path="url(#clip-path-10)">
                  <path id="Trazado_661380" data-name="Trazado 661380" d="M13.363,5.564c-1.1.469-2.2.592-2.569.06a.979.979,0,0,1,.187-1.076,3.793,3.793,0,0,1,3.281-1.413c.5.072.835.294.91.6" fill="#fff"/>
                </g>
              </g>
            </g>
            <path id="Trazado_661381" data-name="Trazado 661381" d="M35.392,46.921c0,.039-.395.032-1.016.115a7.92,7.92,0,0,0-4.348,2.05,10.216,10.216,0,0,1-.735.71,2.948,2.948,0,0,1,.62-.827,6.923,6.923,0,0,1,4.446-2.1,2.891,2.891,0,0,1,1.033.048" fill="#455a64"/>
            <path id="Trazado_661382" data-name="Trazado 661382" d="M35.819,42.131c.026.059-2.31,1.135-5.217,2.4s-5.284,2.251-5.31,2.192,2.31-1.135,5.217-2.4,5.284-2.251,5.31-2.192" fill="#455a64"/>
            <path id="Trazado_661383" data-name="Trazado 661383" d="M35.678,44.034a8.063,8.063,0,0,1-1.227.691c-.772.4-1.852.922-3.059,1.47s-2.314,1.014-3.122,1.333A8.069,8.069,0,0,1,26.942,48a9.025,9.025,0,0,1,1.264-.619l3.09-1.393,3.084-1.407a9.046,9.046,0,0,1,1.3-.543" fill="#455a64"/>
          </g>
        </g>
      </g>
    </g>
    <g id="Grupo_970550" data-name="Grupo 970550" transform="translate(1312 4787)">
      <g id="Grupo_970549" data-name="Grupo 970549" clip-path="url(#clip-path-11)">
        <path id="Trazado_661384" data-name="Trazado 661384" d="M0,42.705A38.773,38.773,0,1,1,39.4,81.026,38.915,38.915,0,0,1,0,42.705m57.3-.925A18.539,18.539,0,1,0,39.071,60.7,18.6,18.6,0,0,0,57.309,41.78" fill="#f5f5f5"/>
        <path id="Trazado_661385" data-name="Trazado 661385" d="M0,42.705A38.912,38.912,0,0,1,38.15,3.133l.325,20.324a18.625,18.625,0,0,0,.6,37.244L39.4,81.025A38.9,38.9,0,0,1,0,42.705" fill="#e0e0e0"/>
        <path id="Trazado_661386" data-name="Trazado 661386" d="M34.669.006C59.678-.4,79.628,19.012,80.03,44.136l-23.669.381c-.192-12.012-9.333-19.576-21.29-19.382Z" fill="#ebebeb"/>
      </g>
    </g>
    <g id="Grupo_970533" data-name="Grupo 970533" transform="translate(1208.542 4653.549)">
      <g id="Grupo_970532" data-name="Grupo 970532" clip-path="url(#clip-path-12)">
        <g id="Grupo_970531" data-name="Grupo 970531">
          <g id="Grupo_970530" data-name="Grupo 970530" clip-path="url(#clip-path-12)">
            <path id="Trazado_661284" data-name="Trazado 661284" d="M38.52,127.132l3.6,4.5v-7.737h11.33s1.259,17.719.99,21.5a30.645,30.645,0,0,1-1.387,5.779,6.651,6.651,0,0,1-10.983,2.75,38.271,38.271,0,0,1-3.547-3.943c-5.036-6.475-13.4-22.246-13.4-22.246l8.726-5.271Z" fill="#ffbe9d"/>
            <path id="Trazado_661285" data-name="Trazado 661285" d="M37.8,126.3a12.916,12.916,0,0,0,1.48,1.977c.954,1.184,2.279,2.817,3.793,4.583s2.944,3.32,4.054,4.374a8.176,8.176,0,0,0,1.925,1.56,19.021,19.021,0,0,0-1.657-1.824c-1.031-1.112-2.406-2.7-3.918-4.457-3-3.542-5.549-6.332-5.677-6.213" fill="#eb996e"/>
            <path id="Trazado_661286" data-name="Trazado 661286" d="M99.5,26.029l.511,41.159c.087,7-1.215,17.3-12.288,16.931C78.137,83.076,75.6,74,75.52,67.473c-.035-3.1-.071-5.682-.1-6,0,0-10.489-.855-11.375-11.216-.428-5.007-.469-15.391-.4-24.787A19.368,19.368,0,0,1,81.615,6.31l1-.073c10.835-.158,17.022,8.956,16.88,19.792" fill="#ffbe9d"/>
            <path id="Trazado_661287" data-name="Trazado 661287" d="M75.425,61.472a25.119,25.119,0,0,0,13.211-4.978s-2.741,7.815-13.157,7.637Z" fill="#eb996e"/>
            <path id="Trazado_661288" data-name="Trazado 661288" d="M81.365,29.715c.206.211,1.4-.754,3.138-.8,1.734-.073,3.032.8,3.215.582.089-.1-.125-.483-.691-.88a4.349,4.349,0,0,0-2.58-.732,4.184,4.184,0,0,0-2.491.907c-.522.435-.692.829-.591.923" fill="#263238"/>
            <path id="Trazado_661289" data-name="Trazado 661289" d="M80.414,33.9a1.4,1.4,0,0,0,1.454,1.315,1.345,1.345,0,0,0,1.352-1.369,1.405,1.405,0,0,0-1.453-1.315A1.343,1.343,0,0,0,80.414,33.9" fill="#263238"/>
            <path id="Trazado_661290" data-name="Trazado 661290" d="M77.017,41.791a10.576,10.576,0,0,0-2.622-.278c-.41-.012-.8-.065-.89-.338a2.072,2.072,0,0,1,.183-1.225q.466-1.52.978-3.187c1.349-4.534,2.293-8.25,2.111-8.3S75.351,32.04,74,36.573c-.323,1.118-.632,2.183-.925,3.2a2.363,2.363,0,0,0-.094,1.612,1.021,1.021,0,0,0,.712.546,2.734,2.734,0,0,0,.7.046,10.391,10.391,0,0,0,2.624-.188" fill="#263238"/>
            <path id="Trazado_661291" data-name="Trazado 661291" d="M82.1,22.329c.168.385,1.557.095,3.221.181,1.666.05,3.032.452,3.225.082.085-.177-.174-.532-.739-.875a5.255,5.255,0,0,0-2.436-.686,5.2,5.2,0,0,0-2.475.486c-.587.3-.869.629-.8.812" fill="#263238"/>
            <path id="Trazado_661292" data-name="Trazado 661292" d="M65.617,24.929c.182.314,1.537-.035,3.178-.085,1.642-.08,3,.159,3.177-.169.076-.156-.194-.437-.766-.687a5.746,5.746,0,0,0-2.428-.4,5.9,5.9,0,0,0-2.414.595c-.565.294-.827.6-.747.747" fill="#263238"/>
            <path id="Trazado_661293" data-name="Trazado 661293" d="M99.21,33.77c.171-.09,6.972-2.628,7.263,4.478s-6.9,5.933-6.924,5.73S99.21,33.77,99.21,33.77" fill="#ffbe9d"/>
            <path id="Trazado_661294" data-name="Trazado 661294" d="M101.609,41.2c.03-.024.127.082.34.169a1.24,1.24,0,0,0,.927-.019,3.068,3.068,0,0,0,1.305-2.806,4.1,4.1,0,0,0-.42-1.758,1.43,1.43,0,0,0-.97-.913.632.632,0,0,0-.717.37c-.087.2-.036.342-.073.356-.019.019-.157-.113-.112-.409a.792.792,0,0,1,.261-.456.933.933,0,0,1,.677-.209,1.74,1.74,0,0,1,1.339,1.049,4.2,4.2,0,0,1,.51,1.962c.013,1.435-.665,2.805-1.68,3.144a1.33,1.33,0,0,1-1.14-.142c-.227-.167-.271-.324-.247-.338" fill="#eb996e"/>
            <path id="Trazado_661295" data-name="Trazado 661295" d="M78.693,46.711c-.077-.179,1.315-.6,2.293-1.9a7.957,7.957,0,0,0,.984-1.856c.207-.516.364-.84.441-.816s.054.372-.06.933a5.244,5.244,0,0,1-.914,2.079,4.25,4.25,0,0,1-1.816,1.389c-.542.22-.909.234-.928.173" fill="#263238"/>
            <path id="Trazado_661296" data-name="Trazado 661296" d="M49.892,16.169a1.681,1.681,0,0,1,.788-.98,5.167,5.167,0,0,1,2.649-.43,14.964,14.964,0,0,0,7.792-2.368A34.91,34.91,0,0,1,64.747,8c3.141-3.238,5.725-5.442,8.4-6.518A24.061,24.061,0,0,1,85.989.468c3.606.946,6.843,3.871,7.344,7.564,2.022-1.709,5.058-1.695,7.52-.7l.061-.027c2.743.978,4.3,3.875,5.11,6.671s1.154,5.787,2.635,8.294c.31.524.677,1.152.407,1.7a1.157,1.157,0,0,1-1.211.528,3.4,3.4,0,0,1-1.276-.578q.459,1.1.917,2.2a6.483,6.483,0,0,1-2.983-.2,63.57,63.57,0,0,1-1.95,7.374,4.229,4.229,0,0,0-2.9.714c-.96.864-1.39,2.489-2.986,1.872-.812-.314-1.553-2.018-1.825-2.846A40.435,40.435,0,0,1,93.1,15.907a13.021,13.021,0,0,0-4.014-2.9l.123.111c-2.9-1.006-6.171-1.995-8.919-.636-2.131,1.055-3.383,3.266-4.977,5.031a16.268,16.268,0,0,1-11.594,5.355c-.153,2.918.092,7.041-.061,9.959L61.2,28.156l0,.024c-.2-.342-.367-.687-.527-1.033l-.055-.1v-.013a18.5,18.5,0,0,0-.821-1.66l-.028.025A1.822,1.822,0,0,1,57.1,22.957a4.112,4.112,0,0,1,.881-.886,2.881,2.881,0,0,1-2.747.712,2.262,2.262,0,0,1-1.6-2.237A1.925,1.925,0,0,1,54.786,19a6.489,6.489,0,0,1-3.7-.814c-.73-.416-1.446-1.1-1.2-2.019" fill="#263238"/>
            <path id="Trazado_661297" data-name="Trazado 661297" d="M90.072,9.222a9.026,9.026,0,0,1,1.04.951A7.441,7.441,0,0,1,92.7,13.614a13.045,13.045,0,0,1,.264,2.634c0,.955-.072,1.977-.145,3.054a27.258,27.258,0,0,0-.078,3.4,12,12,0,0,0,.234,1.793,3.731,3.731,0,0,0,.731,1.739,1.565,1.565,0,0,0,1.463.492,2.331,2.331,0,0,0,1.316-.744,5.374,5.374,0,0,0,1-2.635l-.218.026a8.7,8.7,0,0,0,1.261,2.171,3.087,3.087,0,0,0,2.016,1.1,1.988,1.988,0,0,0,1.069-.187,1.727,1.727,0,0,0,.726-.715,1.78,1.78,0,0,0,.22-.919,1.283,1.283,0,0,0-.333-.806l-.11.1a6.682,6.682,0,0,0,2.227,1.671,6.18,6.18,0,0,0,.69.268,1.23,1.23,0,0,0,.247.061,1.233,1.233,0,0,0-.234-.1c-.154-.063-.383-.155-.669-.3a6.9,6.9,0,0,1-2.149-1.7l-.11.1a1.328,1.328,0,0,1,.069,1.54,1.546,1.546,0,0,1-.656.632,1.794,1.794,0,0,1-.969.158A2.889,2.889,0,0,1,98.693,25.4a8.561,8.561,0,0,1-1.215-2.125l-.149-.332-.068.359a5.2,5.2,0,0,1-.951,2.518,2.1,2.1,0,0,1-1.178.665,1.319,1.319,0,0,1-1.243-.417,3.535,3.535,0,0,1-.676-1.627,11.956,11.956,0,0,1-.232-1.756,27.747,27.747,0,0,1,.064-3.371c.067-1.076.136-2.1.123-3.07a12.919,12.919,0,0,0-.3-2.668,7.338,7.338,0,0,0-1.688-3.468,4.224,4.224,0,0,0-1.11-.888" fill="#455a64"/>
            <path id="Trazado_661298" data-name="Trazado 661298" d="M58.009,19.306s.026.027.083.071l.259.189a3.537,3.537,0,0,0,.439.281,5.407,5.407,0,0,0,.631.332,9.179,9.179,0,0,0,4.436.8,11.74,11.74,0,0,0,6.255-2.31,20.336,20.336,0,0,0,5.374-6.194c.754-1.255,1.368-2.541,2.046-3.73a13.716,13.716,0,0,1,2.316-3.155,7.075,7.075,0,0,1,2.986-1.812,5.06,5.06,0,0,1,1.575-.182,5.6,5.6,0,0,1,1.442.277,6,6,0,0,1,3.33,2.818,7.131,7.131,0,0,1,.535,1.554.34.34,0,0,0-.008-.108c-.013-.086-.029-.19-.049-.317a5.209,5.209,0,0,0-.393-1.171,5.9,5.9,0,0,0-1.161-1.573,6.066,6.066,0,0,0-2.2-1.365,5.712,5.712,0,0,0-1.487-.3,5.215,5.215,0,0,0-1.639.174,7.246,7.246,0,0,0-3.088,1.846,13.86,13.86,0,0,0-2.367,3.2c-.685,1.2-1.3,2.48-2.047,3.723a20.363,20.363,0,0,1-5.3,6.138,11.675,11.675,0,0,1-6.135,2.319,9.324,9.324,0,0,1-4.387-.713,14.951,14.951,0,0,1-1.45-.787" fill="#455a64"/>
            <path id="Trazado_661299" data-name="Trazado 661299" d="M57.066,14.752a1.648,1.648,0,0,0,.372.259,7.994,7.994,0,0,0,1.1.559,10.733,10.733,0,0,0,1.743.572,12.2,12.2,0,0,0,2.228.3,12.26,12.26,0,0,0,2.244-.153,10.685,10.685,0,0,0,1.776-.459,8.039,8.039,0,0,0,1.134-.488,1.612,1.612,0,0,0,.387-.234c-.02-.041-.592.253-1.575.559a12.143,12.143,0,0,1-1.757.4,13.252,13.252,0,0,1-2.2.13,13.215,13.215,0,0,1-2.187-.271,12.236,12.236,0,0,1-1.728-.513c-.961-.368-1.513-.7-1.536-.659" fill="#455a64"/>
            <path id="Trazado_661300" data-name="Trazado 661300" d="M65.54,29.715c.206.211,1.4-.754,3.139-.8,1.733-.071,3.031.8,3.214.581.09-.1-.125-.482-.691-.879a4.349,4.349,0,0,0-2.58-.732,4.187,4.187,0,0,0-2.491.907c-.522.435-.692.829-.591.923" fill="#263238"/>
            <path id="Trazado_661301" data-name="Trazado 661301" d="M65.906,33.9A1.405,1.405,0,0,0,67.36,35.22a1.343,1.343,0,0,0,1.351-1.369,1.4,1.4,0,0,0-1.452-1.315A1.343,1.343,0,0,0,65.906,33.9" fill="#263238"/>
            <path id="Trazado_661302" data-name="Trazado 661302" d="M119.982,339.225l2.15,25.878,7.6,19.977a2.661,2.661,0,0,1-4.108,3.056c-4.342-3.361-19.993-15.714-20.168-17.324-.226-2.084-4.215-27.529-4.215-27.529Z" fill="#455a64"/>
            <path id="Trazado_661303" data-name="Trazado 661303" d="M128.022,388.572l-22.994-20.708.225,1.917c.155,1.049.172,1.618.862,2.274a223.5,223.5,0,0,0,19.266,16.52c.7.547,1.8.279,2.641,0" fill="#263238"/>
            <path id="Trazado_661304" data-name="Trazado 661304" d="M109.552,359.8a1.611,1.611,0,0,1,.66,2.044,1.546,1.546,0,0,1-2.02.672,1.7,1.7,0,0,1-.688-2.168,1.6,1.6,0,0,1,2.179-.466" fill="#fff"/>
            <path id="Trazado_661305" data-name="Trazado 661305" d="M120.922,377.916c.154.056.592-1.358,2.051-2.249a8.111,8.111,0,0,1,2.913-.884c.015-.066-.333-.232-.946-.253a4.243,4.243,0,0,0-3.84,2.423c-.244.563-.244.949-.178.963" fill="#263238"/>
            <path id="Trazado_661306" data-name="Trazado 661306" d="M123.128,381.179c.135.1.874-.829,2.169-1.353a21.55,21.55,0,0,1,2.487-.593,2.946,2.946,0,0,0-2.707.067c-1.472.606-2.091,1.824-1.949,1.879" fill="#263238"/>
            <path id="Trazado_661307" data-name="Trazado 661307" d="M117.028,373.848a26.343,26.343,0,0,1,3.207-2.314,26.562,26.562,0,0,1,3.735-1.3,7.276,7.276,0,0,0-6.942,3.614" fill="#263238"/>
            <path id="Trazado_661308" data-name="Trazado 661308" d="M115.717,366.036c.085.148,1.449-.6,3.3-.864,1.846-.29,3.367.026,3.406-.14a6.6,6.6,0,0,0-6.7,1" fill="#263238"/>
            <path id="Trazado_661309" data-name="Trazado 661309" d="M114.894,358.455a13.032,13.032,0,0,1,3.409-.991,13.014,13.014,0,0,1,3.515.5c.037-.059-.28-.353-.912-.634a5.8,5.8,0,0,0-5.2.371c-.585.368-.857.7-.812.757" fill="#263238"/>
            <path id="Trazado_661310" data-name="Trazado 661310" d="M118.1,356.027a2.229,2.229,0,0,0-.068-.98,6.828,6.828,0,0,0-1.048-2.476,3.03,3.03,0,0,0-1.443-1.3,1.07,1.07,0,0,0-1.173.364,1.737,1.737,0,0,0-.285,1.209,3.762,3.762,0,0,0,3.645,3.113,4.365,4.365,0,0,0,4.02-2.722,1.511,1.511,0,0,0-.062-1.259,1.049,1.049,0,0,0-1.15-.437,3.721,3.721,0,0,0-1.607,1.065,7.614,7.614,0,0,0-1.55,2.193,2.33,2.33,0,0,0-.3.935,12.111,12.111,0,0,1,2.129-2.835,3.472,3.472,0,0,1,1.423-.894.56.56,0,0,1,.629.234,1.037,1.037,0,0,1-.008.83,3.893,3.893,0,0,1-3.513,2.319,3.265,3.265,0,0,1-3.132-2.6,1.264,1.264,0,0,1,.164-.853.579.579,0,0,1,.644-.21,2.736,2.736,0,0,1,1.242,1.078,10.1,10.1,0,0,1,1.445,3.223" fill="#263238"/>
            <path id="Trazado_661311" data-name="Trazado 661311" d="M58.7,340.56l.958,21.914s-21.953,8.334-22.17,12.4l42.557-.332-.092-34.206Z" fill="#455a64"/>
            <path id="Trazado_661312" data-name="Trazado 661312" d="M72.8,360.528a1.737,1.737,0,0,1,1.217,1.974,1.67,1.67,0,0,1-1.946,1.224,1.834,1.834,0,0,1-1.278-2.1,1.735,1.735,0,0,1,2.166-1.048" fill="#e0e0e0"/>
            <path id="Trazado_661313" data-name="Trazado 661313" d="M80.044,374.544,79.9,371.1,39.151,372.7s-1.889.84-1.664,2.172Z" fill="#263238"/>
            <path id="Trazado_661314" data-name="Trazado 661314" d="M58.966,362.264c.008.208,1.048.294,2.076.954,1.045.634,1.579,1.53,1.77,1.446.191-.042-.129-1.282-1.387-2.06s-2.506-.53-2.459-.34" fill="#263238"/>
            <path id="Trazado_661315" data-name="Trazado 661315" d="M54.516,364.145c-.046.2.857.548,1.569,1.421.739.853.924,1.8,1.131,1.791.2.031.33-1.187-.577-2.256s-2.12-1.154-2.123-.956" fill="#263238"/>
            <path id="Trazado_661316" data-name="Trazado 661316" d="M52.023,369.506c.189.043.47-1-.072-2.132s-1.518-1.579-1.6-1.4c-.116.172.52.778.951,1.715.453.927.519,1.8.726,1.822" fill="#263238"/>
            <path id="Trazado_661317" data-name="Trazado 661317" d="M59.3,357.245c.089.189,1.04-.1,2.215-.035,1.176.047,2.094.434,2.2.255.12-.151-.779-.913-2.164-.977s-2.354.6-2.251.757" fill="#263238"/>
            <path id="Trazado_661318" data-name="Trazado 661318" d="M51.291,183.214c.024,1.269,4.943,176.4,4.943,176.4H82.54L87.869,209.8s6.222,78.331,6.222,80.023,5.491,70.634,5.491,70.634l24.389-1.99-1.6-157.732-2.98-23.125Z" fill="#263238"/>
            <path id="Trazado_661319" data-name="Trazado 661319" d="M90.605,204.259a4.817,4.817,0,0,1-1.068.449c-.7.256-1.714.608-2.97,1.032l-.239.081-.018-.247c-.146-2.107-.311-4.925-.466-8.012-.167-3.348-.29-6.379-.352-8.575-.032-1.1-.048-1.986-.047-2.6a3.406,3.406,0,0,1,.053-.957,3.425,3.425,0,0,1,.149.948c.062.612.134,1.5.213,2.594.156,2.191.337,5.22.5,8.567.154,3.088.271,5.907.335,8.018l-.256-.166c1.271-.381,2.306-.681,3.025-.878a4.891,4.891,0,0,1,1.137-.253" fill="#455a64"/>
            <path id="Trazado_661320" data-name="Trazado 661320" d="M88.608,186.046c-.017-.023.085-.14.349-.229a1.611,1.611,0,0,1,1.162.1,1.45,1.45,0,0,1,.88,1.439,1.764,1.764,0,0,1-1.4,1.55,1.923,1.923,0,0,1-1.94-.878,1.564,1.564,0,0,1,.022-1.663,1.75,1.75,0,0,1,.869-.728c.259-.091.414-.076.419-.048.04.074-.593.2-.962.938a1.243,1.243,0,0,0,.063,1.265,1.475,1.475,0,0,0,1.426.629,1.339,1.339,0,0,0,1.025-1.108,1.091,1.091,0,0,0-.581-1.09,2.064,2.064,0,0,0-1.333-.178" fill="#455a64"/>
            <path id="Trazado_661321" data-name="Trazado 661321" d="M100.684,187.843c-.144.014-.343-.745-.446-1.7s-.071-1.733.074-1.747.341.745.445,1.7.069,1.732-.073,1.746" fill="#455a64"/>
            <path id="Trazado_661322" data-name="Trazado 661322" d="M102.508,187.667c-.144,0-.264-.808-.269-1.806s.107-1.808.251-1.809.264.808.269,1.806-.107,1.808-.251,1.809" fill="#455a64"/>
            <path id="Trazado_661323" data-name="Trazado 661323" d="M70.8,188.875a8.388,8.388,0,0,1-.476-4.12,8.388,8.388,0,0,1,.476,4.12" fill="#455a64"/>
            <path id="Trazado_661324" data-name="Trazado 661324" d="M73.01,189.043a4.486,4.486,0,0,1-.185-4.3,10.614,10.614,0,0,1,.062,2.153,10.607,10.607,0,0,1,.123,2.151" fill="#455a64"/>
            <path id="Trazado_661325" data-name="Trazado 661325" d="M64.689,186.7a2.473,2.473,0,0,1-.088.772,14.888,14.888,0,0,1-.529,2.053,21.722,21.722,0,0,1-3.257,6.241,22.81,22.81,0,0,1-5.138,4.972,16.586,16.586,0,0,1-1.868,1.147,2.867,2.867,0,0,1-.739.332c-.042-.068.955-.629,2.4-1.729a25.853,25.853,0,0,0,4.959-4.98,24.775,24.775,0,0,0,3.324-6.082c.619-1.663.85-2.742.931-2.726" fill="#455a64"/>
            <path id="Trazado_661326" data-name="Trazado 661326" d="M121.567,198.505a2.554,2.554,0,0,1-.8.125,12.472,12.472,0,0,1-2.2-.041,14.44,14.44,0,0,1-6.738-2.492,13.421,13.421,0,0,1-4.49-5.387,10.834,10.834,0,0,1-.689-1.988,2.221,2.221,0,0,1-.109-.761c.083-.021.307,1.053,1.1,2.618a14.226,14.226,0,0,0,4.467,5.16,15.239,15.239,0,0,0,6.5,2.538c1.807.259,2.953.146,2.957.228" fill="#455a64"/>
            <path id="Trazado_661327" data-name="Trazado 661327" d="M78.712,287.193c-.033.119-4.393-.884-9.737-2.239s-9.65-2.55-9.617-2.669,4.392.884,9.738,2.239,9.649,2.55,9.616,2.669" fill="#455a64"/>
            <path id="Trazado_661328" data-name="Trazado 661328" d="M121.1,280.819c.063.107-3.732,2.216-8.474,4.708s-8.638,4.427-8.7,4.32,3.731-2.216,8.475-4.709,8.637-4.426,8.7-4.319" fill="#455a64"/>
            <path id="Trazado_661329" data-name="Trazado 661329" d="M64.368,72.686,76.317,68l22.011-1.246,10.346,3.934L94.5,78.56l-12.224-.448Z" fill="#ffbe9d"/>
            <path id="Trazado_661330" data-name="Trazado 661330" d="M50.275,185.13c1.081.186,73.2,3.249,73.2,3.249l-2.533-64.846-.208-12.732-4.1-38.571s-10.78-3.706-16.28-5.476c0,0-5.789,6.033-16.795,5.87-10.761-.159-13.009-2.585-13.009-2.585L55.51,75.806s-10.7,3.836-12.538,8.569C41.18,88.983,37.9,115.3,37.9,115.3H53.491l-.3,46.483Z" fill="#535353"/>
            <g id="Grupo_970523" data-name="Grupo 970523" opacity="0.2">
              <g id="Grupo_970522" data-name="Grupo 970522">
                <g id="Grupo_970521" data-name="Grupo 970521" clip-path="url(#clip-path-14)">
                  <path id="Trazado_661331" data-name="Trazado 661331" d="M95.619,98.584l2.236,16.348,10.818,4.831,8-6.815V97.772Z"/>
                </g>
              </g>
            </g>
            <path id="Trazado_661332" data-name="Trazado 661332" d="M116.387,103.221c0,.136-4.5.246-10.041.246s-10.042-.11-10.042-.246,4.5-.246,10.042-.246,10.041.11,10.041.246" fill="#263238"/>
            <path id="Trazado_661333" data-name="Trazado 661333" d="M45.416,91.131a2.026,2.026,0,0,1,.115.43c.074.323.17.737.288,1.253a41.255,41.255,0,0,0,1.436,4.6c.718,1.936,1.733,4.208,2.974,6.761,1.174,2.6,2.236,5.594,3.347,8.837l.011.033v.038c-.026,3.884-.055,8.136-.084,12.578-.1,9.916-.2,18.891-.269,25.443-.057,3.219-.1,5.84-.135,7.708-.026.876-.046,1.573-.061,2.1a4.255,4.255,0,0,1-.053.729,4.3,4.3,0,0,1-.041-.732c-.007-.523-.016-1.221-.027-2.1,0-1.868-.008-4.491-.014-7.711.034-6.552.08-15.525.131-25.44.041-4.441.079-8.692.114-12.575l.011.07c-1.089-3.236-2.132-6.24-3.266-8.82A72.65,72.65,0,0,1,47,97.507a35.406,35.406,0,0,1-1.322-4.662c-.107-.553-.184-.98-.22-1.27a2.11,2.11,0,0,1-.043-.444" fill="#263238"/>
            <path id="Trazado_661334" data-name="Trazado 661334" d="M121.875,83.544a8.2,8.2,0,0,1-.014,1.384c-.036.974-.083,2.24-.14,3.765-.129,3.261-.3,7.611-.491,12.42-.217,4.81-.414,9.16-.562,12.421-.088,1.524-.16,2.79-.216,3.763a7.7,7.7,0,0,1-.143,1.377,7.814,7.814,0,0,1-.039-1.384c.017-.975.04-2.242.067-3.768.08-3.182.224-7.576.426-12.428s.422-9.242.628-12.418c.1-1.589.2-2.874.289-3.76a7.49,7.49,0,0,1,.195-1.372" fill="#263238"/>
            <g id="Grupo_970526" data-name="Grupo 970526" opacity="0.3">
              <g id="Grupo_970525" data-name="Grupo 970525">
                <g id="Grupo_970524" data-name="Grupo 970524" clip-path="url(#clip-path-15)">
                  <path id="Trazado_661335" data-name="Trazado 661335" d="M45.455,93.487a27.1,27.1,0,0,0,7.081,19.319c-1.467-6.69-5.131-12.917-7.081-19.319"/>
                </g>
              </g>
            </g>
            <g id="Grupo_970529" data-name="Grupo 970529" opacity="0.3">
              <g id="Grupo_970528" data-name="Grupo 970528">
                <g id="Grupo_970527" data-name="Grupo 970527" clip-path="url(#clip-path-16)">
                  <path id="Trazado_661336" data-name="Trazado 661336" d="M77.132,157.685a13.5,13.5,0,0,0,8.655-4.816,40.923,40.923,0,0,0,5.813-8.417,33.189,33.189,0,0,0,3.409-13.233c-4.2,11.26-10.362,20.173-17.877,26.466"/>
                </g>
              </g>
            </g>
            <path id="Trazado_661337" data-name="Trazado 661337" d="M96.336,126.307a1.391,1.391,0,0,1-.06.415c-.071.322-.157.708-.259,1.171-.111.51-.268,1.127-.486,1.835s-.434,1.523-.758,2.4a55.772,55.772,0,0,1-2.489,6.056,63.876,63.876,0,0,1-3.967,6.97,62.776,62.776,0,0,1-4.892,6.359,52.549,52.549,0,0,1-4.649,4.613c-.686.632-1.358,1.144-1.937,1.605s-1.088.845-1.522,1.135l-.991.676a1.426,1.426,0,0,1-.363.209c-.009-.013.1-.112.309-.286l.936-.745c.415-.311.912-.706,1.466-1.192s1.213-1.005,1.881-1.648a58.2,58.2,0,0,0,4.546-4.652,67.32,67.32,0,0,0,4.826-6.332,68.929,68.929,0,0,0,3.97-6.9,62.244,62.244,0,0,0,2.564-5.978c.342-.863.586-1.665.819-2.364s.424-1.305.561-1.805c.136-.454.249-.832.344-1.146a1.443,1.443,0,0,1,.151-.393" fill="#263238"/>
            <path id="Trazado_661338" data-name="Trazado 661338" d="M94.253,106.012a3.5,3.5,0,0,1-.084.662c-.084.475-.194,1.1-.332,1.883-.139.819-.332,1.817-.625,2.96s-.559,2.463-1.007,3.881q-.316,1.069-.661,2.237c-.234.777-.535,1.566-.816,2.393-.542,1.663-1.269,3.384-2,5.207A94.648,94.648,0,0,1,82.875,136.6a94.4,94.4,0,0,1-7.46,10.381c-1.288,1.485-2.49,2.915-3.725,4.155-.609.627-1.174,1.254-1.76,1.816l-1.691,1.606c-1.059,1.044-2.107,1.889-3,2.662s-1.685,1.407-2.351,1.9l-1.526,1.152a3.543,3.543,0,0,1-.551.376,3.656,3.656,0,0,1,.494-.451l1.469-1.219c.647-.518,1.429-1.162,2.295-1.96s1.9-1.649,2.94-2.7l1.664-1.621c.576-.567,1.133-1.2,1.733-1.827,1.217-1.246,2.4-2.68,3.676-4.164a98.335,98.335,0,0,0,7.391-10.351,98.158,98.158,0,0,0,5.852-11.289c.743-1.809,1.48-3.517,2.035-5.167.288-.821.6-1.6.839-2.374l.686-2.22c.467-1.406.763-2.713,1.071-3.849s.534-2.123.7-2.935c.173-.774.312-1.393.417-1.863a3.64,3.64,0,0,1,.177-.645" fill="#263238"/>
            <path id="Trazado_661339" data-name="Trazado 661339" d="M37.27,85.84c4.445,6.756,22.444,34.125,27.766,42.219a1.25,1.25,0,0,1-1.2,1.926l-31.976-4.023a1.253,1.253,0,0,1-.854-.5L.46,83.746a1.251,1.251,0,0,1,1.1-1.987l32.9,2.433A3.681,3.681,0,0,1,37.27,85.84" fill="#e0e0e0"/>
            <path id="Trazado_661340" data-name="Trazado 661340" d="M37.27,85.84a2.2,2.2,0,0,0-.255-.383,3.566,3.566,0,0,0-1.034-.872,4.5,4.5,0,0,0-2.131-.517l-2.975-.245L11.909,82.335l-6.285-.482L2.28,81.6c-.295-.017-.543-.055-.882-.055a1.427,1.427,0,0,0-.92.382A1.469,1.469,0,0,0,.235,83.8L9.126,96l20.393,27.888c.465.627.878,1.216,1.381,1.867a1.521,1.521,0,0,0,.568.385,2.482,2.482,0,0,0,.62.122l1.128.142,4.474.562,8.747,1.1,16.536,2.065c.343.037.628.091,1.015.113a1.47,1.47,0,0,0,1.06-.441,1.516,1.516,0,0,0,.438-1.051,1.757,1.757,0,0,0-.385-1.025l-2.108-3.195-4.033-6.108-7.247-10.959c-4.432-6.675-8.024-12.084-10.524-15.847-1.24-1.848-2.209-3.29-2.883-4.294l-.761-1.109a2.889,2.889,0,0,0-.275-.368,2.865,2.865,0,0,0,.229.4l.717,1.138,2.8,4.349L51.4,107.665l7.191,11q1.942,2.962,4.011,6.123l2.1,3.2a1.264,1.264,0,0,1,.3.76,1.036,1.036,0,0,1-.3.71.985.985,0,0,1-.712.295c-.271-.015-.64-.076-.957-.112l-16.532-2.1-8.746-1.1-4.473-.564-1.128-.142a2.079,2.079,0,0,1-.5-.091.98.98,0,0,1-.369-.25q-.668-.907-1.341-1.82L9.522,95.707.606,83.563a1.028,1.028,0,0,1,.167-1.319.991.991,0,0,1,.644-.27c.237,0,.559.034.832.049l3.344.24,6.288.448L30.86,84.03l2.979.2a4.452,4.452,0,0,1,2.09.453A4.217,4.217,0,0,1,37.27,85.84" fill="#263238"/>
            <path id="Trazado_661341" data-name="Trazado 661341" d="M.46,83.746a3.689,3.689,0,0,0,.67.1l1.941.2,7.226.641L34.87,86.689l-.2-.113c1.538,2.285,3.125,4.658,4.718,7.109,6.484,9.967,12.148,19.129,16.426,25.648,2.127,3.267,3.9,5.881,5.126,7.68l1.443,2.054a5.423,5.423,0,0,0,.533.7,5.457,5.457,0,0,0-.444-.756l-1.359-2.11-4.982-7.768c-4.195-6.567-9.807-15.758-16.3-25.736-1.594-2.453-3.187-4.826-4.732-7.111l-.071-.1-.125-.009L10.323,84.344l-7.238-.485-1.947-.108a3.678,3.678,0,0,0-.678,0" fill="#263238"/>
            <path id="Trazado_661342" data-name="Trazado 661342" d="M20.285,89.711h0l-.013,0Z" fill="#fff"/>
            <path id="Trazado_661343" data-name="Trazado 661343" d="M19.493,90.187a.646.646,0,0,1,.791-.477,1.721,1.721,0,0,1,.858.482.856.856,0,0,1,.156,1.1c-.32.395-.976.249-1.361-.082a1.117,1.117,0,0,1-.444-1.019" fill="#fff"/>
            <path id="Trazado_661344" data-name="Trazado 661344" d="M34.429,113.849s1.262-3.008-1.941-3.4a110.925,110.925,0,0,0-11.61,0s-4.6.486-3.626,3.785c0,0-2.718,2.426-1.262,5.047s2.038,1.844,2.038,1.844-.388,3.2,2.038,3.687c0,0,2.63,3.106,5.052,2.912s12.708-5.144,13.387-6.114,1.65-1.523,1.068-2.6c0,0,1.261-2.84-1.456-3.272,0,0-.194-2.372-3.688-1.887" fill="#ffbe9d"/>
            <path id="Trazado_661345" data-name="Trazado 661345" d="M19.838,114.936a8.744,8.744,0,0,0,2.164.155c1.335.028,3.18.03,5.217,0a30.957,30.957,0,0,0,5.24-.312c1.382-.32,1.923-1.131,1.858-1.148a5.5,5.5,0,0,1-1.936.779,51.617,51.617,0,0,1-5.171.148c-2.036.031-3.88.089-5.214.158a8.762,8.762,0,0,0-2.158.221" fill="#eb996e"/>
            <path id="Trazado_661346" data-name="Trazado 661346" d="M22.131,119.787a1.616,1.616,0,0,0,.7.24,7.43,7.43,0,0,0,2,.124,14.125,14.125,0,0,0,2.918-.529c1.075-.3,2.217-.71,3.423-1.08a15.337,15.337,0,0,1,3.445-.71,5.289,5.289,0,0,0,2.934-.593,1.681,1.681,0,0,0,.7-1,1.382,1.382,0,0,0-.122-.909c-.253-.462-.6-.489-.588-.463-.027.042.248.139.4.548a1.254,1.254,0,0,1-.6,1.512,5.272,5.272,0,0,1-2.749.415,14.272,14.272,0,0,0-3.573.691l-3.4,1.117a16.3,16.3,0,0,1-2.815.626,18.362,18.362,0,0,1-2.664.011" fill="#eb996e"/>
            <path id="Trazado_661347" data-name="Trazado 661347" d="M25.569,123.891a8.617,8.617,0,0,0,2.161-.418c1.315-.332,3.117-.847,5.084-1.49s3.725-1.3,4.982-1.806a8.554,8.554,0,0,0,1.989-.94c-.055-.141-3.215.959-7.137,2.239s-7.119,2.269-7.079,2.415" fill="#eb996e"/>
            <path id="Trazado_661348" data-name="Trazado 661348" d="M24.745,127.7a4.726,4.726,0,0,0,1.793-.207,21.371,21.371,0,0,0,4.1-1.442c1.542-.7,2.888-1.418,3.863-1.935a6.4,6.4,0,0,0,1.535-.929c-.068-.159-2.585.949-5.618,2.379-3.028,1.452-5.69,1.995-5.67,2.134" fill="#eb996e"/>
            <path id="Trazado_661349" data-name="Trazado 661349" d="M126.986,98.76s-6.538,26.194-14.707,35.862c-7.911,9.363-20.31,5.059-24.6-7.055S75.733,87.782,75.733,87.782L85.128,80.6l16.231,31.457,7.315-21.444Z" fill="#ffbe9d"/>
            <path id="Trazado_661350" data-name="Trazado 661350" d="M76.168,88.508l-6.889-9.985a17.948,17.948,0,0,1-2.935-.91c-.781-.457-1.549-4.423-1.533-5.2s-1.336-2.584-.788-3.093,2.394-.548,2.294-1.292c-.021-.159-1.369-1.813-.3-3.028a5.711,5.711,0,0,1,1.943-.825l-.112-3.81s2.058-4.5,4.161-2.87c0,0,7.929,6.091,8.728,7.064s3.849,13.657,4.39,16.037" fill="#ffbe9d"/>
            <path id="Trazado_661351" data-name="Trazado 661351" d="M85.127,80.6a3.55,3.55,0,0,0-.106-.673c-.1-.481-.239-1.115-.408-1.907-.371-1.653-.926-4.044-1.677-6.99-.38-1.472-.8-3.084-1.327-4.8-.14-.429-.275-.864-.458-1.306a2.943,2.943,0,0,0-.935-1.149c-.722-.636-1.482-1.259-2.266-1.9-1.569-1.27-3.235-2.58-4.972-3.931a5.829,5.829,0,0,0-1.451-.957,1.986,1.986,0,0,0-1.788.425,8.166,8.166,0,0,0-2.113,2.854l-.024.047,0,.061c.011.369.022.767.034,1.166.026.891.052,1.775.078,2.644l.185-.243a9.139,9.139,0,0,0-1.4.47,2.05,2.05,0,0,0-.677.441,1.933,1.933,0,0,0-.384.705,2.365,2.365,0,0,0,.121,1.516,4.532,4.532,0,0,0,.311.655l.175.3.036.063c-.009-.011,0-.04-.007-.014a.11.11,0,0,1-.011.065c-.02.086-.206.2-.392.277s-.4.143-.615.208-.431.128-.651.215a1.283,1.283,0,0,0-.661.465,1.091,1.091,0,0,0-.018.811,5.072,5.072,0,0,0,.233.64c.172.4.364.785.505,1.163a1.584,1.584,0,0,1,.12.535,5.626,5.626,0,0,0,.062.65c.06.416.137.821.22,1.22a16.111,16.111,0,0,0,.647,2.3,2.9,2.9,0,0,0,.605,1.061,3.525,3.525,0,0,0,1.074.472c.7.217,1.378.387,2.04.541l-.11-.075c2.126,3.023,3.863,5.491,5.1,7.252l1.415,1.963a5.01,5.01,0,0,0,.524.665,5.093,5.093,0,0,0-.436-.726L74.4,85.762c-1.206-1.782-2.9-4.283-4.968-7.343l-.039-.058-.071-.018c-.65-.159-1.326-.337-2-.556a3.4,3.4,0,0,1-.928-.4,2.7,2.7,0,0,1-.484-.9,16.14,16.14,0,0,1-.61-2.243c-.078-.392-.15-.79-.205-1.192a5.237,5.237,0,0,1-.054-.59,2.076,2.076,0,0,0-.143-.689c-.154-.415-.345-.8-.508-1.188a4.66,4.66,0,0,1-.209-.58.7.7,0,0,1-.02-.469,1.023,1.023,0,0,1,.423-.253c.193-.075.4-.135.618-.2s.435-.129.661-.222a1.105,1.105,0,0,0,.65-.535.57.57,0,0,0,.046-.267.377.377,0,0,0-.044-.178l-.048-.086-.171-.294a4.168,4.168,0,0,1-.279-.59,1.9,1.9,0,0,1-.105-1.212,1.417,1.417,0,0,1,.286-.522,1.66,1.66,0,0,1,.51-.316,8.823,8.823,0,0,1,1.315-.44l.191-.05-.006-.194c-.025-.869-.051-1.753-.076-2.644-.012-.4-.024-.8-.035-1.166l-.022.109a7.782,7.782,0,0,1,1.96-2.67,1.505,1.505,0,0,1,1.357-.352,5.7,5.7,0,0,1,1.3.874c1.74,1.343,3.411,2.644,4.983,3.9.786.629,1.55,1.246,2.265,1.866a2.54,2.54,0,0,1,.837.994c.175.412.315.845.457,1.265.54,1.7.978,3.3,1.378,4.768.762,2.9,1.381,5.258,1.825,6.947.205.783.37,1.41.5,1.885a3.662,3.662,0,0,0,.2.651" fill="#eb996e"/>
            <path id="Trazado_661352" data-name="Trazado 661352" d="M67.96,64.178c0,.084.805.02,2.055.141a14.7,14.7,0,0,1,2.168.5,9.948,9.948,0,0,0,2.8.024A5.292,5.292,0,0,1,79.4,66.271a5.7,5.7,0,0,1,1.066,1.7,2.616,2.616,0,0,0-.813-1.932,5.14,5.14,0,0,0-1.9-1.331,5.768,5.768,0,0,0-2.807-.353,10.743,10.743,0,0,1-2.682.022,11.962,11.962,0,0,0-2.23-.4,5.47,5.47,0,0,0-2.082.2" fill="#eb996e"/>
            <path id="Trazado_661353" data-name="Trazado 661353" d="M70.765,63.97c.117.06.437-.4.4-1.062s-.411-1.081-.52-1.007.006.5.032,1.036-.036.979.092,1.033" fill="#eb996e"/>
            <path id="Trazado_661354" data-name="Trazado 661354" d="M66.072,68.175a17.29,17.29,0,0,0,5.972-.468,5.93,5.93,0,0,1,2.195-.278,2.385,2.385,0,0,1,1.422.938,13.991,13.991,0,0,1,.784,1.515,2.664,2.664,0,0,0-.5-1.712,2.63,2.63,0,0,0-1.616-1.182,5.761,5.761,0,0,0-2.388.241c-3.2.7-5.873.8-5.869.946" fill="#eb996e"/>
            <path id="Trazado_661355" data-name="Trazado 661355" d="M65.018,71.779a3.209,3.209,0,0,0,1.468.007c.9-.1,2.112-.411,3.433-.67a7.759,7.759,0,0,1,1.848-.185,2.223,2.223,0,0,1,1.331.481,2.124,2.124,0,0,1,.649,1.165c.028,0,.1-.133.082-.4a1.668,1.668,0,0,0-.5-1.013,2.43,2.43,0,0,0-1.528-.677,7.013,7.013,0,0,0-1.977.153c-1.359.267-2.535.626-3.4.81a7.024,7.024,0,0,0-1.409.333" fill="#eb996e"/>
            <path id="Trazado_661356" data-name="Trazado 661356" d="M67.38,74.637c-.083.062.589.767,1.826.764l-.244-.211c.025.217.048.425.073.638a6.914,6.914,0,0,0,.566,2.517,6.976,6.976,0,0,0-.081-2.573c-.029-.212-.058-.418-.088-.633l-.031-.224-.213.013a8.431,8.431,0,0,1-1.808-.291" fill="#eb996e"/>
            <path id="Trazado_661357" data-name="Trazado 661357" d="M116.638,72.23s13.391,3.245,13.363,21c-.028,17.689-4.044,26.53-4.044,26.53l-24.685-13.435L106.78,92.5Z" fill="#535353"/>
            <path id="Trazado_661358" data-name="Trazado 661358" d="M125.956,119.762a2.432,2.432,0,0,1-.513-.224l-1.432-.727-5.262-2.773-17.6-9.483-.2-.108.081-.21c.423-1.106.87-2.276,1.324-3.461,1.577-4.1,3.079-8,4.449-11.558.688-1.771,1.342-3.457,1.956-5.038a30.439,30.439,0,0,1,1.954-4.31,13.369,13.369,0,0,1,4.454-5.155,5.412,5.412,0,0,1,1.736-.695,3.255,3.255,0,0,1,.482-.063c.11,0,.166,0,.167,0a6.626,6.626,0,0,0-2.277.925,13.634,13.634,0,0,0-4.239,5.16,31.212,31.212,0,0,0-1.873,4.284l-1.91,5.055-4.411,11.571c-.455,1.186-.9,2.355-1.328,3.461l-.118-.318,17.52,9.633,5.186,2.912,1.388.807a2.378,2.378,0,0,1,.467.31" fill="#263238"/>
          </g>
        </g>
      </g>
    </g>
    <g id="Grupo_970552" data-name="Grupo 970552" transform="translate(1166.46 4597.651)">
      <g id="Grupo_970551" data-name="Grupo 970551" clip-path="url(#clip-path-17)">
        <path id="Trazado_661387" data-name="Trazado 661387" d="M36.26,42.117V11.539A30.578,30.578,0,1,1,5.691,42.824Z" fill="#ebebeb"/>
        <path id="Trazado_661388" data-name="Trazado 661388" d="M30.578,30.566,0,31.257A32.256,32.256,0,0,1,8.664,9.241,31.434,31.434,0,0,1,30.1,0Z" fill="#f5f5f5"/>
      </g>
    </g>
  </g>
</svg>
